<?xml version="1.0" encoding="utf-8" standalone="no"?>
<!DOCTYPE svg PUBLIC "-//W3C//DTD SVG 1.1//EN"
  "http://www.w3.org/Graphics/SVG/1.1/DTD/svg11.dtd">
<svg xmlns:xlink="http://www.w3.org/1999/xlink" width="460.8pt" height="345.6pt" viewBox="0 0 460.8 345.6" xmlns="http://www.w3.org/2000/svg" version="1.1">
 <metadata>
  <rdf:RDF xmlns:dc="http://purl.org/dc/elements/1.1/" xmlns:cc="http://creativecommons.org/ns#" xmlns:rdf="http://www.w3.org/1999/02/22-rdf-syntax-ns#">
   <cc:Work>
    <dc:type rdf:resource="http://purl.org/dc/dcmitype/StillImage"/>
    <dc:date>2026-04-06T18:19:29.564900</dc:date>
    <dc:format>image/svg+xml</dc:format>
    <dc:creator>
     <cc:Agent>
      <dc:title>Matplotlib v3.10.8, https://matplotlib.org/</dc:title>
     </cc:Agent>
    </dc:creator>
   </cc:Work>
  </rdf:RDF>
 </metadata>
 <defs>
  <style type="text/css">*{stroke-linejoin: round; stroke-linecap: butt}</style>
 </defs>
 <g id="figure_1">
  <g id="patch_1">
   <path d="M 0 345.6 
L 460.8 345.6 
L 460.8 0 
L 0 0 
z
" style="fill: #ffffff"/>
  </g>
  <g id="axes_1">
   <g id="patch_2">
    <path d="M 57.6 307.584 
L 414.72 307.584 
L 414.72 41.472 
L 57.6 41.472 
z
" style="fill: #ffffff"/>
   </g>
   <g id="matplotlib.axis_1">
    <g id="xtick_1">
     <g id="line2d_1">
      <defs>
       <path id="m87dfdbba5f" d="M 0 0 
L 0 3.5 
" style="stroke: #000000; stroke-width: 0.8"/>
      </defs>
      <g>
       <use xlink:href="#m87dfdbba5f" x="73.832727" y="307.584" style="stroke: #000000; stroke-width: 0.8"/>
      </g>
     </g>
     <g id="text_1">
      <!-- 0.0 -->
      <g transform="translate(65.881165 322.182437) scale(0.1 -0.1)">
       <defs>
        <path id="DejaVuSans-30" d="M 2034 4250 
Q 1547 4250 1301 3770 
Q 1056 3291 1056 2328 
Q 1056 1369 1301 889 
Q 1547 409 2034 409 
Q 2525 409 2770 889 
Q 3016 1369 3016 2328 
Q 3016 3291 2770 3770 
Q 2525 4250 2034 4250 
z
M 2034 4750 
Q 2819 4750 3233 4129 
Q 3647 3509 3647 2328 
Q 3647 1150 3233 529 
Q 2819 -91 2034 -91 
Q 1250 -91 836 529 
Q 422 1150 422 2328 
Q 422 3509 836 4129 
Q 1250 4750 2034 4750 
z
" transform="scale(0.015625)"/>
        <path id="DejaVuSans-2e" d="M 684 794 
L 1344 794 
L 1344 0 
L 684 0 
L 684 794 
z
" transform="scale(0.015625)"/>
       </defs>
       <use xlink:href="#DejaVuSans-30"/>
       <use xlink:href="#DejaVuSans-2e" transform="translate(63.623047 0)"/>
       <use xlink:href="#DejaVuSans-30" transform="translate(95.410156 0)"/>
      </g>
     </g>
    </g>
    <g id="xtick_2">
     <g id="line2d_2">
      <g>
       <use xlink:href="#m87dfdbba5f" x="138.763636" y="307.584" style="stroke: #000000; stroke-width: 0.8"/>
      </g>
     </g>
     <g id="text_2">
      <!-- 0.2 -->
      <g transform="translate(130.812074 322.182437) scale(0.1 -0.1)">
       <defs>
        <path id="DejaVuSans-32" d="M 1228 531 
L 3431 531 
L 3431 0 
L 469 0 
L 469 531 
Q 828 903 1448 1529 
Q 2069 2156 2228 2338 
Q 2531 2678 2651 2914 
Q 2772 3150 2772 3378 
Q 2772 3750 2511 3984 
Q 2250 4219 1831 4219 
Q 1534 4219 1204 4116 
Q 875 4013 500 3803 
L 500 4441 
Q 881 4594 1212 4672 
Q 1544 4750 1819 4750 
Q 2544 4750 2975 4387 
Q 3406 4025 3406 3419 
Q 3406 3131 3298 2873 
Q 3191 2616 2906 2266 
Q 2828 2175 2409 1742 
Q 1991 1309 1228 531 
z
" transform="scale(0.015625)"/>
       </defs>
       <use xlink:href="#DejaVuSans-30"/>
       <use xlink:href="#DejaVuSans-2e" transform="translate(63.623047 0)"/>
       <use xlink:href="#DejaVuSans-32" transform="translate(95.410156 0)"/>
      </g>
     </g>
    </g>
    <g id="xtick_3">
     <g id="line2d_3">
      <g>
       <use xlink:href="#m87dfdbba5f" x="203.694545" y="307.584" style="stroke: #000000; stroke-width: 0.8"/>
      </g>
     </g>
     <g id="text_3">
      <!-- 0.4 -->
      <g transform="translate(195.742983 322.182437) scale(0.1 -0.1)">
       <defs>
        <path id="DejaVuSans-34" d="M 2419 4116 
L 825 1625 
L 2419 1625 
L 2419 4116 
z
M 2253 4666 
L 3047 4666 
L 3047 1625 
L 3713 1625 
L 3713 1100 
L 3047 1100 
L 3047 0 
L 2419 0 
L 2419 1100 
L 313 1100 
L 313 1709 
L 2253 4666 
z
" transform="scale(0.015625)"/>
       </defs>
       <use xlink:href="#DejaVuSans-30"/>
       <use xlink:href="#DejaVuSans-2e" transform="translate(63.623047 0)"/>
       <use xlink:href="#DejaVuSans-34" transform="translate(95.410156 0)"/>
      </g>
     </g>
    </g>
    <g id="xtick_4">
     <g id="line2d_4">
      <g>
       <use xlink:href="#m87dfdbba5f" x="268.625455" y="307.584" style="stroke: #000000; stroke-width: 0.8"/>
      </g>
     </g>
     <g id="text_4">
      <!-- 0.6 -->
      <g transform="translate(260.673892 322.182437) scale(0.1 -0.1)">
       <defs>
        <path id="DejaVuSans-36" d="M 2113 2584 
Q 1688 2584 1439 2293 
Q 1191 2003 1191 1497 
Q 1191 994 1439 701 
Q 1688 409 2113 409 
Q 2538 409 2786 701 
Q 3034 994 3034 1497 
Q 3034 2003 2786 2293 
Q 2538 2584 2113 2584 
z
M 3366 4563 
L 3366 3988 
Q 3128 4100 2886 4159 
Q 2644 4219 2406 4219 
Q 1781 4219 1451 3797 
Q 1122 3375 1075 2522 
Q 1259 2794 1537 2939 
Q 1816 3084 2150 3084 
Q 2853 3084 3261 2657 
Q 3669 2231 3669 1497 
Q 3669 778 3244 343 
Q 2819 -91 2113 -91 
Q 1303 -91 875 529 
Q 447 1150 447 2328 
Q 447 3434 972 4092 
Q 1497 4750 2381 4750 
Q 2619 4750 2861 4703 
Q 3103 4656 3366 4563 
z
" transform="scale(0.015625)"/>
       </defs>
       <use xlink:href="#DejaVuSans-30"/>
       <use xlink:href="#DejaVuSans-2e" transform="translate(63.623047 0)"/>
       <use xlink:href="#DejaVuSans-36" transform="translate(95.410156 0)"/>
      </g>
     </g>
    </g>
    <g id="xtick_5">
     <g id="line2d_5">
      <g>
       <use xlink:href="#m87dfdbba5f" x="333.556364" y="307.584" style="stroke: #000000; stroke-width: 0.8"/>
      </g>
     </g>
     <g id="text_5">
      <!-- 0.8 -->
      <g transform="translate(325.604801 322.182437) scale(0.1 -0.1)">
       <defs>
        <path id="DejaVuSans-38" d="M 2034 2216 
Q 1584 2216 1326 1975 
Q 1069 1734 1069 1313 
Q 1069 891 1326 650 
Q 1584 409 2034 409 
Q 2484 409 2743 651 
Q 3003 894 3003 1313 
Q 3003 1734 2745 1975 
Q 2488 2216 2034 2216 
z
M 1403 2484 
Q 997 2584 770 2862 
Q 544 3141 544 3541 
Q 544 4100 942 4425 
Q 1341 4750 2034 4750 
Q 2731 4750 3128 4425 
Q 3525 4100 3525 3541 
Q 3525 3141 3298 2862 
Q 3072 2584 2669 2484 
Q 3125 2378 3379 2068 
Q 3634 1759 3634 1313 
Q 3634 634 3220 271 
Q 2806 -91 2034 -91 
Q 1263 -91 848 271 
Q 434 634 434 1313 
Q 434 1759 690 2068 
Q 947 2378 1403 2484 
z
M 1172 3481 
Q 1172 3119 1398 2916 
Q 1625 2713 2034 2713 
Q 2441 2713 2670 2916 
Q 2900 3119 2900 3481 
Q 2900 3844 2670 4047 
Q 2441 4250 2034 4250 
Q 1625 4250 1398 4047 
Q 1172 3844 1172 3481 
z
" transform="scale(0.015625)"/>
       </defs>
       <use xlink:href="#DejaVuSans-30"/>
       <use xlink:href="#DejaVuSans-2e" transform="translate(63.623047 0)"/>
       <use xlink:href="#DejaVuSans-38" transform="translate(95.410156 0)"/>
      </g>
     </g>
    </g>
    <g id="xtick_6">
     <g id="line2d_6">
      <g>
       <use xlink:href="#m87dfdbba5f" x="398.487273" y="307.584" style="stroke: #000000; stroke-width: 0.8"/>
      </g>
     </g>
     <g id="text_6">
      <!-- 1.0 -->
      <g transform="translate(390.53571 322.182437) scale(0.1 -0.1)">
       <defs>
        <path id="DejaVuSans-31" d="M 794 531 
L 1825 531 
L 1825 4091 
L 703 3866 
L 703 4441 
L 1819 4666 
L 2450 4666 
L 2450 531 
L 3481 531 
L 3481 0 
L 794 0 
L 794 531 
z
" transform="scale(0.015625)"/>
       </defs>
       <use xlink:href="#DejaVuSans-31"/>
       <use xlink:href="#DejaVuSans-2e" transform="translate(63.623047 0)"/>
       <use xlink:href="#DejaVuSans-30" transform="translate(95.410156 0)"/>
      </g>
     </g>
    </g>
    <g id="text_7">
     <!-- False Positive Rate -->
     <g transform="translate(189.693594 335.860562) scale(0.1 -0.1)">
      <defs>
       <path id="DejaVuSans-46" d="M 628 4666 
L 3309 4666 
L 3309 4134 
L 1259 4134 
L 1259 2759 
L 3109 2759 
L 3109 2228 
L 1259 2228 
L 1259 0 
L 628 0 
L 628 4666 
z
" transform="scale(0.015625)"/>
       <path id="DejaVuSans-61" d="M 2194 1759 
Q 1497 1759 1228 1600 
Q 959 1441 959 1056 
Q 959 750 1161 570 
Q 1363 391 1709 391 
Q 2188 391 2477 730 
Q 2766 1069 2766 1631 
L 2766 1759 
L 2194 1759 
z
M 3341 1997 
L 3341 0 
L 2766 0 
L 2766 531 
Q 2569 213 2275 61 
Q 1981 -91 1556 -91 
Q 1019 -91 701 211 
Q 384 513 384 1019 
Q 384 1609 779 1909 
Q 1175 2209 1959 2209 
L 2766 2209 
L 2766 2266 
Q 2766 2663 2505 2880 
Q 2244 3097 1772 3097 
Q 1472 3097 1187 3025 
Q 903 2953 641 2809 
L 641 3341 
Q 956 3463 1253 3523 
Q 1550 3584 1831 3584 
Q 2591 3584 2966 3190 
Q 3341 2797 3341 1997 
z
" transform="scale(0.015625)"/>
       <path id="DejaVuSans-6c" d="M 603 4863 
L 1178 4863 
L 1178 0 
L 603 0 
L 603 4863 
z
" transform="scale(0.015625)"/>
       <path id="DejaVuSans-73" d="M 2834 3397 
L 2834 2853 
Q 2591 2978 2328 3040 
Q 2066 3103 1784 3103 
Q 1356 3103 1142 2972 
Q 928 2841 928 2578 
Q 928 2378 1081 2264 
Q 1234 2150 1697 2047 
L 1894 2003 
Q 2506 1872 2764 1633 
Q 3022 1394 3022 966 
Q 3022 478 2636 193 
Q 2250 -91 1575 -91 
Q 1294 -91 989 -36 
Q 684 19 347 128 
L 347 722 
Q 666 556 975 473 
Q 1284 391 1588 391 
Q 1994 391 2212 530 
Q 2431 669 2431 922 
Q 2431 1156 2273 1281 
Q 2116 1406 1581 1522 
L 1381 1569 
Q 847 1681 609 1914 
Q 372 2147 372 2553 
Q 372 3047 722 3315 
Q 1072 3584 1716 3584 
Q 2034 3584 2315 3537 
Q 2597 3491 2834 3397 
z
" transform="scale(0.015625)"/>
       <path id="DejaVuSans-65" d="M 3597 1894 
L 3597 1613 
L 953 1613 
Q 991 1019 1311 708 
Q 1631 397 2203 397 
Q 2534 397 2845 478 
Q 3156 559 3463 722 
L 3463 178 
Q 3153 47 2828 -22 
Q 2503 -91 2169 -91 
Q 1331 -91 842 396 
Q 353 884 353 1716 
Q 353 2575 817 3079 
Q 1281 3584 2069 3584 
Q 2775 3584 3186 3129 
Q 3597 2675 3597 1894 
z
M 3022 2063 
Q 3016 2534 2758 2815 
Q 2500 3097 2075 3097 
Q 1594 3097 1305 2825 
Q 1016 2553 972 2059 
L 3022 2063 
z
" transform="scale(0.015625)"/>
       <path id="DejaVuSans-20" transform="scale(0.015625)"/>
       <path id="DejaVuSans-50" d="M 1259 4147 
L 1259 2394 
L 2053 2394 
Q 2494 2394 2734 2622 
Q 2975 2850 2975 3272 
Q 2975 3691 2734 3919 
Q 2494 4147 2053 4147 
L 1259 4147 
z
M 628 4666 
L 2053 4666 
Q 2838 4666 3239 4311 
Q 3641 3956 3641 3272 
Q 3641 2581 3239 2228 
Q 2838 1875 2053 1875 
L 1259 1875 
L 1259 0 
L 628 0 
L 628 4666 
z
" transform="scale(0.015625)"/>
       <path id="DejaVuSans-6f" d="M 1959 3097 
Q 1497 3097 1228 2736 
Q 959 2375 959 1747 
Q 959 1119 1226 758 
Q 1494 397 1959 397 
Q 2419 397 2687 759 
Q 2956 1122 2956 1747 
Q 2956 2369 2687 2733 
Q 2419 3097 1959 3097 
z
M 1959 3584 
Q 2709 3584 3137 3096 
Q 3566 2609 3566 1747 
Q 3566 888 3137 398 
Q 2709 -91 1959 -91 
Q 1206 -91 779 398 
Q 353 888 353 1747 
Q 353 2609 779 3096 
Q 1206 3584 1959 3584 
z
" transform="scale(0.015625)"/>
       <path id="DejaVuSans-69" d="M 603 3500 
L 1178 3500 
L 1178 0 
L 603 0 
L 603 3500 
z
M 603 4863 
L 1178 4863 
L 1178 4134 
L 603 4134 
L 603 4863 
z
" transform="scale(0.015625)"/>
       <path id="DejaVuSans-74" d="M 1172 4494 
L 1172 3500 
L 2356 3500 
L 2356 3053 
L 1172 3053 
L 1172 1153 
Q 1172 725 1289 603 
Q 1406 481 1766 481 
L 2356 481 
L 2356 0 
L 1766 0 
Q 1100 0 847 248 
Q 594 497 594 1153 
L 594 3053 
L 172 3053 
L 172 3500 
L 594 3500 
L 594 4494 
L 1172 4494 
z
" transform="scale(0.015625)"/>
       <path id="DejaVuSans-76" d="M 191 3500 
L 800 3500 
L 1894 563 
L 2988 3500 
L 3597 3500 
L 2284 0 
L 1503 0 
L 191 3500 
z
" transform="scale(0.015625)"/>
       <path id="DejaVuSans-52" d="M 2841 2188 
Q 3044 2119 3236 1894 
Q 3428 1669 3622 1275 
L 4263 0 
L 3584 0 
L 2988 1197 
Q 2756 1666 2539 1819 
Q 2322 1972 1947 1972 
L 1259 1972 
L 1259 0 
L 628 0 
L 628 4666 
L 2053 4666 
Q 2853 4666 3247 4331 
Q 3641 3997 3641 3322 
Q 3641 2881 3436 2590 
Q 3231 2300 2841 2188 
z
M 1259 4147 
L 1259 2491 
L 2053 2491 
Q 2509 2491 2742 2702 
Q 2975 2913 2975 3322 
Q 2975 3731 2742 3939 
Q 2509 4147 2053 4147 
L 1259 4147 
z
" transform="scale(0.015625)"/>
      </defs>
      <use xlink:href="#DejaVuSans-46"/>
      <use xlink:href="#DejaVuSans-61" transform="translate(48.394531 0)"/>
      <use xlink:href="#DejaVuSans-6c" transform="translate(109.673828 0)"/>
      <use xlink:href="#DejaVuSans-73" transform="translate(137.457031 0)"/>
      <use xlink:href="#DejaVuSans-65" transform="translate(189.556641 0)"/>
      <use xlink:href="#DejaVuSans-20" transform="translate(251.080078 0)"/>
      <use xlink:href="#DejaVuSans-50" transform="translate(282.867188 0)"/>
      <use xlink:href="#DejaVuSans-6f" transform="translate(339.544922 0)"/>
      <use xlink:href="#DejaVuSans-73" transform="translate(400.726562 0)"/>
      <use xlink:href="#DejaVuSans-69" transform="translate(452.826172 0)"/>
      <use xlink:href="#DejaVuSans-74" transform="translate(480.609375 0)"/>
      <use xlink:href="#DejaVuSans-69" transform="translate(519.818359 0)"/>
      <use xlink:href="#DejaVuSans-76" transform="translate(547.601562 0)"/>
      <use xlink:href="#DejaVuSans-65" transform="translate(606.78125 0)"/>
      <use xlink:href="#DejaVuSans-20" transform="translate(668.304688 0)"/>
      <use xlink:href="#DejaVuSans-52" transform="translate(700.091797 0)"/>
      <use xlink:href="#DejaVuSans-61" transform="translate(767.324219 0)"/>
      <use xlink:href="#DejaVuSans-74" transform="translate(828.603516 0)"/>
      <use xlink:href="#DejaVuSans-65" transform="translate(867.8125 0)"/>
     </g>
    </g>
   </g>
   <g id="matplotlib.axis_2">
    <g id="ytick_1">
     <g id="line2d_7">
      <defs>
       <path id="m55334f1fb7" d="M 0 0 
L -3.5 0 
" style="stroke: #000000; stroke-width: 0.8"/>
      </defs>
      <g>
       <use xlink:href="#m55334f1fb7" x="57.6" y="295.488" style="stroke: #000000; stroke-width: 0.8"/>
      </g>
     </g>
     <g id="text_8">
      <!-- 0.0 -->
      <g transform="translate(34.696875 299.287219) scale(0.1 -0.1)">
       <use xlink:href="#DejaVuSans-30"/>
       <use xlink:href="#DejaVuSans-2e" transform="translate(63.623047 0)"/>
       <use xlink:href="#DejaVuSans-30" transform="translate(95.410156 0)"/>
      </g>
     </g>
    </g>
    <g id="ytick_2">
     <g id="line2d_8">
      <g>
       <use xlink:href="#m55334f1fb7" x="57.6" y="247.104" style="stroke: #000000; stroke-width: 0.8"/>
      </g>
     </g>
     <g id="text_9">
      <!-- 0.2 -->
      <g transform="translate(34.696875 250.903219) scale(0.1 -0.1)">
       <use xlink:href="#DejaVuSans-30"/>
       <use xlink:href="#DejaVuSans-2e" transform="translate(63.623047 0)"/>
       <use xlink:href="#DejaVuSans-32" transform="translate(95.410156 0)"/>
      </g>
     </g>
    </g>
    <g id="ytick_3">
     <g id="line2d_9">
      <g>
       <use xlink:href="#m55334f1fb7" x="57.6" y="198.72" style="stroke: #000000; stroke-width: 0.8"/>
      </g>
     </g>
     <g id="text_10">
      <!-- 0.4 -->
      <g transform="translate(34.696875 202.519219) scale(0.1 -0.1)">
       <use xlink:href="#DejaVuSans-30"/>
       <use xlink:href="#DejaVuSans-2e" transform="translate(63.623047 0)"/>
       <use xlink:href="#DejaVuSans-34" transform="translate(95.410156 0)"/>
      </g>
     </g>
    </g>
    <g id="ytick_4">
     <g id="line2d_10">
      <g>
       <use xlink:href="#m55334f1fb7" x="57.6" y="150.336" style="stroke: #000000; stroke-width: 0.8"/>
      </g>
     </g>
     <g id="text_11">
      <!-- 0.6 -->
      <g transform="translate(34.696875 154.135219) scale(0.1 -0.1)">
       <use xlink:href="#DejaVuSans-30"/>
       <use xlink:href="#DejaVuSans-2e" transform="translate(63.623047 0)"/>
       <use xlink:href="#DejaVuSans-36" transform="translate(95.410156 0)"/>
      </g>
     </g>
    </g>
    <g id="ytick_5">
     <g id="line2d_11">
      <g>
       <use xlink:href="#m55334f1fb7" x="57.6" y="101.952" style="stroke: #000000; stroke-width: 0.8"/>
      </g>
     </g>
     <g id="text_12">
      <!-- 0.8 -->
      <g transform="translate(34.696875 105.751219) scale(0.1 -0.1)">
       <use xlink:href="#DejaVuSans-30"/>
       <use xlink:href="#DejaVuSans-2e" transform="translate(63.623047 0)"/>
       <use xlink:href="#DejaVuSans-38" transform="translate(95.410156 0)"/>
      </g>
     </g>
    </g>
    <g id="ytick_6">
     <g id="line2d_12">
      <g>
       <use xlink:href="#m55334f1fb7" x="57.6" y="53.568" style="stroke: #000000; stroke-width: 0.8"/>
      </g>
     </g>
     <g id="text_13">
      <!-- 1.0 -->
      <g transform="translate(34.696875 57.367219) scale(0.1 -0.1)">
       <use xlink:href="#DejaVuSans-31"/>
       <use xlink:href="#DejaVuSans-2e" transform="translate(63.623047 0)"/>
       <use xlink:href="#DejaVuSans-30" transform="translate(95.410156 0)"/>
      </g>
     </g>
    </g>
    <g id="text_14">
     <!-- True Positive Rate -->
     <g transform="translate(28.617187 219.057687) rotate(-90) scale(0.1 -0.1)">
      <defs>
       <path id="DejaVuSans-54" d="M -19 4666 
L 3928 4666 
L 3928 4134 
L 2272 4134 
L 2272 0 
L 1638 0 
L 1638 4134 
L -19 4134 
L -19 4666 
z
" transform="scale(0.015625)"/>
       <path id="DejaVuSans-72" d="M 2631 2963 
Q 2534 3019 2420 3045 
Q 2306 3072 2169 3072 
Q 1681 3072 1420 2755 
Q 1159 2438 1159 1844 
L 1159 0 
L 581 0 
L 581 3500 
L 1159 3500 
L 1159 2956 
Q 1341 3275 1631 3429 
Q 1922 3584 2338 3584 
Q 2397 3584 2469 3576 
Q 2541 3569 2628 3553 
L 2631 2963 
z
" transform="scale(0.015625)"/>
       <path id="DejaVuSans-75" d="M 544 1381 
L 544 3500 
L 1119 3500 
L 1119 1403 
Q 1119 906 1312 657 
Q 1506 409 1894 409 
Q 2359 409 2629 706 
Q 2900 1003 2900 1516 
L 2900 3500 
L 3475 3500 
L 3475 0 
L 2900 0 
L 2900 538 
Q 2691 219 2414 64 
Q 2138 -91 1772 -91 
Q 1169 -91 856 284 
Q 544 659 544 1381 
z
M 1991 3584 
L 1991 3584 
z
" transform="scale(0.015625)"/>
      </defs>
      <use xlink:href="#DejaVuSans-54"/>
      <use xlink:href="#DejaVuSans-72" transform="translate(46.333984 0)"/>
      <use xlink:href="#DejaVuSans-75" transform="translate(87.447266 0)"/>
      <use xlink:href="#DejaVuSans-65" transform="translate(150.826172 0)"/>
      <use xlink:href="#DejaVuSans-20" transform="translate(212.349609 0)"/>
      <use xlink:href="#DejaVuSans-50" transform="translate(244.136719 0)"/>
      <use xlink:href="#DejaVuSans-6f" transform="translate(300.814453 0)"/>
      <use xlink:href="#DejaVuSans-73" transform="translate(361.996094 0)"/>
      <use xlink:href="#DejaVuSans-69" transform="translate(414.095703 0)"/>
      <use xlink:href="#DejaVuSans-74" transform="translate(441.878906 0)"/>
      <use xlink:href="#DejaVuSans-69" transform="translate(481.087891 0)"/>
      <use xlink:href="#DejaVuSans-76" transform="translate(508.871094 0)"/>
      <use xlink:href="#DejaVuSans-65" transform="translate(568.050781 0)"/>
      <use xlink:href="#DejaVuSans-20" transform="translate(629.574219 0)"/>
      <use xlink:href="#DejaVuSans-52" transform="translate(661.361328 0)"/>
      <use xlink:href="#DejaVuSans-61" transform="translate(728.59375 0)"/>
      <use xlink:href="#DejaVuSans-74" transform="translate(789.873047 0)"/>
      <use xlink:href="#DejaVuSans-65" transform="translate(829.082031 0)"/>
     </g>
    </g>
   </g>
   <g id="line2d_13">
    <path d="M 73.832727 295.488 
L 73.943238 220.896 
L 73.957973 220.896 
L 74.068483 206.784 
L 74.072167 206.784 
L 74.178994 199.224 
L 74.197412 199.224 
L 74.293188 193.68 
L 74.311607 193.68 
L 74.41475 186.372 
L 74.425801 186.372 
L 74.536312 181.584 
L 74.539996 181.584 
L 74.639455 178.308 
L 74.65419 178.308 
L 74.746282 174.528 
L 74.768384 174.528 
L 74.871528 169.74 
L 74.904681 169.74 
L 75.015191 166.968 
L 75.018875 166.968 
L 75.125702 162.936 
L 75.133069 162.936 
L 75.206743 158.904 
L 75.247264 158.904 
L 75.34304 156.132 
L 75.361458 156.132 
L 75.442499 155.124 
L 75.494071 155.124 
L 75.582479 152.604 
L 75.626684 152.604 
L 75.715092 150.588 
L 75.751929 150.588 
L 75.836654 149.328 
L 75.906644 149.328 
L 76.013471 147.564 
L 76.024522 147.564 
L 76.135033 145.296 
L 76.149768 145.296 
L 76.256595 142.776 
L 76.322901 142.776 
L 76.426044 141.264 
L 76.488667 141.264 
L 76.599178 140.508 
L 76.624963 140.508 
L 76.724423 138.996 
L 76.742841 138.996 
L 76.83125 137.988 
L 76.875454 137.988 
L 76.982281 136.476 
L 76.997016 136.476 
L 77.103843 134.46 
L 77.136996 134.46 
L 77.240139 133.2 
L 77.324864 133.2 
L 77.424324 131.688 
L 77.542202 131.688 
L 77.652713 130.68 
L 77.682182 130.68 
L 77.774274 129.168 
L 77.844264 129.168 
L 77.951091 128.16 
L 77.965826 128.16 
L 78.032133 127.656 
L 78.113174 127.656 
L 78.183164 126.648 
L 78.227368 126.648 
L 78.227368 126.396 
L 78.363665 126.396 
L 78.422604 125.892 
L 78.48891 125.892 
L 78.544165 125.136 
L 78.603104 125.136 
L 78.702564 124.38 
L 78.790972 124.38 
L 78.901483 123.624 
L 78.982524 123.624 
L 78.982524 123.372 
L 79.100402 123.372 
L 79.140923 122.868 
L 79.269852 122.868 
L 79.321424 122.112 
L 79.395097 122.112 
L 79.498241 121.104 
L 79.947651 121.104 
L 80.036059 119.844 
L 80.106049 119.844 
L 80.209193 118.836 
L 80.338122 118.836 
L 80.371275 118.332 
L 80.474418 118.332 
L 80.537041 117.324 
L 80.691756 117.324 
L 80.791215 115.812 
L 80.842787 115.812 
L 80.842787 115.56 
L 80.968032 115.56 
L 81.071176 114.552 
L 81.240625 114.552 
L 81.336401 113.796 
L 81.365871 113.796 
L 81.39534 113.04 
L 81.498484 113.04 
L 81.498484 112.788 
L 81.686352 112.788 
L 81.73424 112.284 
L 81.837383 112.284 
L 81.837383 112.032 
L 81.958945 112.032 
L 82.065772 111.024 
L 82.106292 111.024 
L 82.15418 110.52 
L 82.231538 110.52 
L 82.316263 110.016 
L 82.60359 110.016 
L 82.60359 109.764 
L 82.791458 109.764 
L 82.894602 109.26 
L 82.927755 109.26 
L 83.027215 108.504 
L 83.075102 108.504 
L 83.12299 108 
L 83.332961 108 
L 83.399267 107.244 
L 83.50241 107.244 
L 83.50241 106.992 
L 83.708697 106.992 
L 83.793422 106.488 
L 83.892881 106.488 
L 83.892881 106.236 
L 84.029178 106.236 
L 84.029178 105.984 
L 84.305455 105.984 
L 84.408598 104.976 
L 84.441751 104.976 
L 84.548578 104.472 
L 84.563313 104.472 
L 84.629619 103.968 
L 84.975886 103.968 
L 84.975886 103.716 
L 85.152703 103.716 
L 85.23006 103.212 
L 85.288999 103.212 
L 85.351622 102.708 
L 85.462133 102.708 
L 85.506337 102.204 
L 85.631583 102.204 
L 85.716307 101.7 
L 85.952063 101.7 
L 86.055207 100.692 
L 86.239391 100.692 
L 86.239391 100.44 
L 86.434627 100.44 
L 86.434627 100.188 
L 86.581974 100.188 
L 86.651964 99.684 
L 86.762475 99.684 
L 86.762475 99.432 
L 86.994547 99.432 
L 87.079272 98.928 
L 87.233987 98.928 
L 87.233987 98.676 
L 87.469743 98.676 
L 87.488162 98.172 
L 87.67603 98.172 
L 87.782857 97.668 
L 88.007562 97.668 
L 88.007562 97.416 
L 88.519595 97.416 
L 88.519595 97.164 
L 88.950586 97.164 
L 89.027944 96.66 
L 89.289485 96.66 
L 89.289485 96.408 
L 89.411047 96.408 
L 89.411047 96.156 
L 89.941498 96.156 
L 89.941498 95.904 
L 91.10186 95.904 
L 91.123963 95.4 
L 91.949109 95.4 
L 92.004364 94.896 
L 92.262222 94.896 
L 92.262222 94.644 
L 92.435356 94.644 
L 92.435356 94.392 
L 92.811092 94.392 
L 92.811092 94.14 
L 93.102103 94.14 
L 93.102103 93.888 
L 93.271553 93.888 
L 93.271553 93.636 
L 93.68781 93.636 
L 93.68781 93.384 
L 94.10775 93.384 
L 94.10775 93.132 
L 94.336139 93.132 
L 94.336139 92.88 
L 95.157602 92.88 
L 95.157602 92.628 
L 95.640165 92.628 
L 95.640165 92.376 
L 96.969977 92.376 
L 96.969977 92.124 
L 97.448856 92.124 
L 97.448856 91.872 
L 98.417666 91.872 
L 98.417666 91.62 
L 98.712361 91.62 
L 98.712361 91.368 
L 98.844974 91.368 
L 98.844974 91.116 
L 99.46015 91.116 
L 99.46015 90.864 
L 99.714325 90.864 
L 99.714325 90.612 
L 100.716288 90.612 
L 100.716288 90.36 
L 100.797329 90.36 
L 102.657592 90.36 
L 102.657592 90.108 
L 102.709164 90.108 
L 102.867562 90.108 
L 102.878614 89.604 
L 103.239615 89.604 
L 103.239615 89.352 
L 103.836373 89.352 
L 103.836373 89.1 
L 104.101598 89.1 
L 104.101598 88.848 
L 105.265644 88.848 
L 105.265644 88.596 
L 107.615837 88.596 
L 107.615837 88.344 
L 107.737399 88.344 
L 107.737399 88.092 
L 107.903165 88.092 
L 107.903165 87.84 
L 108.02841 87.84 
L 108.02841 87.588 
L 108.945649 87.588 
L 108.945649 87.336 
L 108.964067 87.336 
L 109.431896 87.336 
L 109.431896 87.084 
L 109.571876 87.084 
L 109.57556 86.832 
L 110.503849 86.832 
L 110.503849 86.58 
L 110.746973 86.58 
L 110.809595 86.076 
L 111.019566 86.076 
L 111.019566 85.824 
L 112.098887 85.824 
L 112.098887 85.572 
L 112.437786 85.572 
L 112.522511 85.068 
L 113.027176 85.068 
L 113.034544 84.564 
L 113.229779 84.564 
L 113.229779 84.312 
L 113.668138 84.312 
L 113.668138 84.06 
L 115.789943 84.06 
L 115.789943 83.808 
L 116.611405 83.808 
L 116.611405 83.556 
L 117.381296 83.556 
L 117.381296 83.304 
L 117.635471 83.304 
L 117.635471 83.052 
L 117.978054 83.052 
L 117.978054 82.8 
L 120.60084 82.8 
L 120.60084 82.548 
L 122.070632 82.548 
L 122.070632 82.296 
L 124.321366 82.296 
L 124.321366 82.044 
L 124.398723 82.044 
L 124.700786 82.044 
L 124.700786 81.792 
L 128.50972 81.792 
L 128.50972 81.54 
L 128.71969 81.54 
L 128.71969 81.288 
L 128.763895 81.288 
L 130.064237 81.288 
L 130.064237 81.036 
L 131.360895 81.036 
L 131.360895 80.784 
L 135.622923 80.784 
L 135.622923 80.532 
L 139.159265 80.532 
L 139.159265 80.28 
L 141.155824 80.28 
L 141.155824 80.028 
L 141.969919 80.028 
L 141.969919 79.776 
L 142.187257 79.776 
L 142.187257 79.524 
L 142.271982 79.524 
L 142.97925 79.524 
L 143.016087 79.02 
L 143.867019 79.02 
L 143.867019 78.768 
L 145.723598 78.768 
L 145.723598 78.516 
L 146.117753 78.516 
L 146.117753 78.264 
L 146.563479 78.264 
L 146.563479 78.012 
L 148.003801 78.012 
L 148.003801 77.76 
L 153.20517 77.76 
L 153.20517 77.508 
L 154.579186 77.508 
L 154.579186 77.256 
L 160.937233 77.256 
L 160.937233 77.004 
L 164.565666 77.004 
L 164.565666 76.752 
L 165.040862 76.752 
L 165.040862 76.5 
L 165.265567 76.5 
L 165.265567 76.248 
L 167.844149 76.248 
L 167.844149 75.996 
L 168.426172 75.996 
L 168.426172 75.744 
L 169.78177 75.744 
L 169.78177 75.492 
L 171.50942 75.492 
L 171.50942 75.24 
L 176.025622 75.24 
L 176.025622 74.988 
L 176.07351 74.988 
L 177.300178 74.988 
L 177.300178 74.736 
L 177.771691 74.736 
L 177.771691 74.484 
L 177.874834 74.484 
L 179.355677 74.484 
L 179.355677 74.232 
L 180.044527 74.232 
L 180.044527 73.98 
L 180.28765 73.98 
L 180.28765 73.728 
L 181.308032 73.728 
L 181.308032 73.476 
L 181.341185 73.476 
L 184.520208 73.476 
L 184.520208 73.224 
L 187.382435 73.224 
L 187.382435 72.972 
L 187.430323 72.972 
L 192.012832 72.972 
L 192.060719 72.468 
L 193.191612 72.468 
L 193.191612 72.216 
L 193.357378 72.216 
L 193.357378 71.964 
L 195.383407 71.964 
L 195.383407 71.712 
L 198.989738 71.712 
L 198.989738 71.46 
L 200.437428 71.46 
L 200.437428 71.208 
L 204.784181 71.208 
L 204.791548 70.956 
L 204.931528 70.956 
L 204.931528 70.704 
L 205.495133 70.704 
L 205.495133 70.452 
L 205.531969 70.452 
L 206.939139 70.452 
L 206.939139 70.2 
L 210.659664 70.2 
L 210.659664 69.948 
L 211.492178 69.948 
L 211.492178 69.696 
L 212.954602 69.696 
L 212.954602 69.444 
L 219.032689 69.444 
L 219.032689 69.192 
L 220.207786 69.192 
L 220.207786 68.94 
L 220.266725 68.94 
L 223.055277 68.94 
L 223.077379 68.436 
L 230.846279 68.436 
L 230.846279 68.184 
L 230.864697 68.184 
L 238.478882 68.184 
L 238.478882 67.932 
L 238.537821 67.932 
L 247.161337 67.932 
L 247.161337 67.68 
L 250.767668 67.68 
L 250.767668 67.428 
L 252.189572 67.428 
L 252.189572 67.176 
L 254.193499 67.176 
L 254.193499 66.924 
L 255.409116 66.924 
L 255.409116 66.672 
L 257.048357 66.672 
L 257.048357 66.42 
L 257.14045 66.42 
L 260.448402 66.42 
L 260.448402 66.168 
L 260.927282 66.168 
L 260.927282 65.916 
L 264.294173 65.916 
L 264.294173 65.664 
L 264.393633 65.664 
L 265.277718 65.664 
L 265.277718 65.412 
L 265.856057 65.412 
L 265.856057 65.16 
L 274.755849 65.16 
L 274.755849 64.908 
L 274.840574 64.908 
L 277.11341 64.908 
L 277.11341 64.656 
L 281.025488 64.656 
L 281.077059 64.152 
L 281.883787 64.152 
L 281.883787 63.9 
L 287.925037 63.9 
L 287.947139 63.396 
L 289.214328 63.396 
L 289.214328 63.144 
L 289.652687 63.144 
L 289.652687 62.892 
L 291.733971 62.892 
L 291.733971 62.64 
L 292.072871 62.64 
L 292.072871 62.388 
L 296.357001 62.388 
L 296.357001 62.136 
L 299.974383 62.136 
L 299.974383 61.884 
L 303.577031 61.884 
L 303.577031 61.632 
L 309.30885 61.632 
L 309.30885 61.38 
L 309.559341 61.38 
L 309.559341 61.128 
L 309.938761 61.128 
L 309.938761 60.876 
L 310.590774 60.876 
L 310.590774 60.624 
L 313.453 60.624 
L 313.453 60.372 
L 314.513903 60.372 
L 314.513903 60.12 
L 315.357467 60.12 
L 315.357467 59.868 
L 315.604275 59.868 
L 315.604275 59.616 
L 315.655846 59.616 
L 318.024458 59.616 
L 318.061295 59.112 
L 323.096898 59.112 
L 323.096898 58.86 
L 324.113596 58.86 
L 324.113596 58.608 
L 325.509714 58.608 
L 325.509714 58.356 
L 326.622188 58.356 
L 326.681127 57.852 
L 329.208137 57.852 
L 329.208137 57.6 
L 333.319134 57.6 
L 333.319134 57.348 
L 337.393294 57.348 
L 337.393294 57.096 
L 337.695356 57.096 
L 337.695356 56.844 
L 338.203705 56.844 
L 338.203705 56.592 
L 344.462293 56.592 
L 344.462293 56.34 
L 346.315188 56.34 
L 346.315188 56.088 
L 347.877072 56.088 
L 347.877072 55.836 
L 351.965967 55.836 
L 351.965967 55.584 
L 354.828193 55.584 
L 354.90555 55.08 
L 359.926418 55.08 
L 359.926418 54.828 
L 363.657995 54.828 
L 363.657995 54.576 
L 363.949006 54.576 
L 363.949006 54.324 
L 366.251312 54.324 
L 366.251312 54.072 
L 368.921986 54.072 
L 368.921986 53.82 
L 371.345854 53.82 
L 371.345854 53.568 
L 398.487273 53.568 
L 398.487273 53.568 
" clip-path="url(#pd319d2d5c1)" style="fill: none; stroke: #1f77b4; stroke-width: 1.5; stroke-linecap: square"/>
   </g>
   <g id="patch_3">
    <path d="M 57.6 307.584 
L 57.6 41.472 
" style="fill: none; stroke: #000000; stroke-width: 0.8; stroke-linejoin: miter; stroke-linecap: square"/>
   </g>
   <g id="patch_4">
    <path d="M 414.72 307.584 
L 414.72 41.472 
" style="fill: none; stroke: #000000; stroke-width: 0.8; stroke-linejoin: miter; stroke-linecap: square"/>
   </g>
   <g id="patch_5">
    <path d="M 57.6 307.584 
L 414.72 307.584 
" style="fill: none; stroke: #000000; stroke-width: 0.8; stroke-linejoin: miter; stroke-linecap: square"/>
   </g>
   <g id="patch_6">
    <path d="M 57.6 41.472 
L 414.72 41.472 
" style="fill: none; stroke: #000000; stroke-width: 0.8; stroke-linejoin: miter; stroke-linecap: square"/>
   </g>
   <g id="text_15">
    <!-- ROC Curve -->
    <g transform="translate(203.469375 35.472) scale(0.12 -0.12)">
     <defs>
      <path id="DejaVuSans-4f" d="M 2522 4238 
Q 1834 4238 1429 3725 
Q 1025 3213 1025 2328 
Q 1025 1447 1429 934 
Q 1834 422 2522 422 
Q 3209 422 3611 934 
Q 4013 1447 4013 2328 
Q 4013 3213 3611 3725 
Q 3209 4238 2522 4238 
z
M 2522 4750 
Q 3503 4750 4090 4092 
Q 4678 3434 4678 2328 
Q 4678 1225 4090 567 
Q 3503 -91 2522 -91 
Q 1538 -91 948 565 
Q 359 1222 359 2328 
Q 359 3434 948 4092 
Q 1538 4750 2522 4750 
z
" transform="scale(0.015625)"/>
      <path id="DejaVuSans-43" d="M 4122 4306 
L 4122 3641 
Q 3803 3938 3442 4084 
Q 3081 4231 2675 4231 
Q 1875 4231 1450 3742 
Q 1025 3253 1025 2328 
Q 1025 1406 1450 917 
Q 1875 428 2675 428 
Q 3081 428 3442 575 
Q 3803 722 4122 1019 
L 4122 359 
Q 3791 134 3420 21 
Q 3050 -91 2638 -91 
Q 1578 -91 968 557 
Q 359 1206 359 2328 
Q 359 3453 968 4101 
Q 1578 4750 2638 4750 
Q 3056 4750 3426 4639 
Q 3797 4528 4122 4306 
z
" transform="scale(0.015625)"/>
     </defs>
     <use xlink:href="#DejaVuSans-52"/>
     <use xlink:href="#DejaVuSans-4f" transform="translate(69.482422 0)"/>
     <use xlink:href="#DejaVuSans-43" transform="translate(148.193359 0)"/>
     <use xlink:href="#DejaVuSans-20" transform="translate(218.017578 0)"/>
     <use xlink:href="#DejaVuSans-43" transform="translate(249.804688 0)"/>
     <use xlink:href="#DejaVuSans-75" transform="translate(319.628906 0)"/>
     <use xlink:href="#DejaVuSans-72" transform="translate(383.007812 0)"/>
     <use xlink:href="#DejaVuSans-76" transform="translate(424.121094 0)"/>
     <use xlink:href="#DejaVuSans-65" transform="translate(483.300781 0)"/>
    </g>
   </g>
   <g id="legend_1">
    <g id="patch_7">
     <path d="M 64.6 64.150125 
L 227.69375 64.150125 
Q 229.69375 64.150125 229.69375 62.150125 
L 229.69375 48.472 
Q 229.69375 46.472 227.69375 46.472 
L 64.6 46.472 
Q 62.6 46.472 62.6 48.472 
L 62.6 62.150125 
Q 62.6 64.150125 64.6 64.150125 
z
" style="fill: #ffffff; opacity: 0.8; stroke: #cccccc; stroke-linejoin: miter"/>
    </g>
    <g id="line2d_14">
     <path d="M 66.6 54.570438 
L 76.6 54.570438 
L 86.6 54.570438 
" style="fill: none; stroke: #1f77b4; stroke-width: 1.5; stroke-linecap: square"/>
    </g>
    <g id="text_16">
     <!-- Graph-NN (AUC = 0.9283) -->
     <g transform="translate(94.6 58.070438) scale(0.1 -0.1)">
      <defs>
       <path id="DejaVuSans-47" d="M 3809 666 
L 3809 1919 
L 2778 1919 
L 2778 2438 
L 4434 2438 
L 4434 434 
Q 4069 175 3628 42 
Q 3188 -91 2688 -91 
Q 1594 -91 976 548 
Q 359 1188 359 2328 
Q 359 3472 976 4111 
Q 1594 4750 2688 4750 
Q 3144 4750 3555 4637 
Q 3966 4525 4313 4306 
L 4313 3634 
Q 3963 3931 3569 4081 
Q 3175 4231 2741 4231 
Q 1884 4231 1454 3753 
Q 1025 3275 1025 2328 
Q 1025 1384 1454 906 
Q 1884 428 2741 428 
Q 3075 428 3337 486 
Q 3600 544 3809 666 
z
" transform="scale(0.015625)"/>
       <path id="DejaVuSans-70" d="M 1159 525 
L 1159 -1331 
L 581 -1331 
L 581 3500 
L 1159 3500 
L 1159 2969 
Q 1341 3281 1617 3432 
Q 1894 3584 2278 3584 
Q 2916 3584 3314 3078 
Q 3713 2572 3713 1747 
Q 3713 922 3314 415 
Q 2916 -91 2278 -91 
Q 1894 -91 1617 61 
Q 1341 213 1159 525 
z
M 3116 1747 
Q 3116 2381 2855 2742 
Q 2594 3103 2138 3103 
Q 1681 3103 1420 2742 
Q 1159 2381 1159 1747 
Q 1159 1113 1420 752 
Q 1681 391 2138 391 
Q 2594 391 2855 752 
Q 3116 1113 3116 1747 
z
" transform="scale(0.015625)"/>
       <path id="DejaVuSans-68" d="M 3513 2113 
L 3513 0 
L 2938 0 
L 2938 2094 
Q 2938 2591 2744 2837 
Q 2550 3084 2163 3084 
Q 1697 3084 1428 2787 
Q 1159 2491 1159 1978 
L 1159 0 
L 581 0 
L 581 4863 
L 1159 4863 
L 1159 2956 
Q 1366 3272 1645 3428 
Q 1925 3584 2291 3584 
Q 2894 3584 3203 3211 
Q 3513 2838 3513 2113 
z
" transform="scale(0.015625)"/>
       <path id="DejaVuSans-2d" d="M 313 2009 
L 1997 2009 
L 1997 1497 
L 313 1497 
L 313 2009 
z
" transform="scale(0.015625)"/>
       <path id="DejaVuSans-4e" d="M 628 4666 
L 1478 4666 
L 3547 763 
L 3547 4666 
L 4159 4666 
L 4159 0 
L 3309 0 
L 1241 3903 
L 1241 0 
L 628 0 
L 628 4666 
z
" transform="scale(0.015625)"/>
       <path id="DejaVuSans-28" d="M 1984 4856 
Q 1566 4138 1362 3434 
Q 1159 2731 1159 2009 
Q 1159 1288 1364 580 
Q 1569 -128 1984 -844 
L 1484 -844 
Q 1016 -109 783 600 
Q 550 1309 550 2009 
Q 550 2706 781 3412 
Q 1013 4119 1484 4856 
L 1984 4856 
z
" transform="scale(0.015625)"/>
       <path id="DejaVuSans-41" d="M 2188 4044 
L 1331 1722 
L 3047 1722 
L 2188 4044 
z
M 1831 4666 
L 2547 4666 
L 4325 0 
L 3669 0 
L 3244 1197 
L 1141 1197 
L 716 0 
L 50 0 
L 1831 4666 
z
" transform="scale(0.015625)"/>
       <path id="DejaVuSans-55" d="M 556 4666 
L 1191 4666 
L 1191 1831 
Q 1191 1081 1462 751 
Q 1734 422 2344 422 
Q 2950 422 3222 751 
Q 3494 1081 3494 1831 
L 3494 4666 
L 4128 4666 
L 4128 1753 
Q 4128 841 3676 375 
Q 3225 -91 2344 -91 
Q 1459 -91 1007 375 
Q 556 841 556 1753 
L 556 4666 
z
" transform="scale(0.015625)"/>
       <path id="DejaVuSans-3d" d="M 678 2906 
L 4684 2906 
L 4684 2381 
L 678 2381 
L 678 2906 
z
M 678 1631 
L 4684 1631 
L 4684 1100 
L 678 1100 
L 678 1631 
z
" transform="scale(0.015625)"/>
       <path id="DejaVuSans-39" d="M 703 97 
L 703 672 
Q 941 559 1184 500 
Q 1428 441 1663 441 
Q 2288 441 2617 861 
Q 2947 1281 2994 2138 
Q 2813 1869 2534 1725 
Q 2256 1581 1919 1581 
Q 1219 1581 811 2004 
Q 403 2428 403 3163 
Q 403 3881 828 4315 
Q 1253 4750 1959 4750 
Q 2769 4750 3195 4129 
Q 3622 3509 3622 2328 
Q 3622 1225 3098 567 
Q 2575 -91 1691 -91 
Q 1453 -91 1209 -44 
Q 966 3 703 97 
z
M 1959 2075 
Q 2384 2075 2632 2365 
Q 2881 2656 2881 3163 
Q 2881 3666 2632 3958 
Q 2384 4250 1959 4250 
Q 1534 4250 1286 3958 
Q 1038 3666 1038 3163 
Q 1038 2656 1286 2365 
Q 1534 2075 1959 2075 
z
" transform="scale(0.015625)"/>
       <path id="DejaVuSans-33" d="M 2597 2516 
Q 3050 2419 3304 2112 
Q 3559 1806 3559 1356 
Q 3559 666 3084 287 
Q 2609 -91 1734 -91 
Q 1441 -91 1130 -33 
Q 819 25 488 141 
L 488 750 
Q 750 597 1062 519 
Q 1375 441 1716 441 
Q 2309 441 2620 675 
Q 2931 909 2931 1356 
Q 2931 1769 2642 2001 
Q 2353 2234 1838 2234 
L 1294 2234 
L 1294 2753 
L 1863 2753 
Q 2328 2753 2575 2939 
Q 2822 3125 2822 3475 
Q 2822 3834 2567 4026 
Q 2313 4219 1838 4219 
Q 1578 4219 1281 4162 
Q 984 4106 628 3988 
L 628 4550 
Q 988 4650 1302 4700 
Q 1616 4750 1894 4750 
Q 2613 4750 3031 4423 
Q 3450 4097 3450 3541 
Q 3450 3153 3228 2886 
Q 3006 2619 2597 2516 
z
" transform="scale(0.015625)"/>
       <path id="DejaVuSans-29" d="M 513 4856 
L 1013 4856 
Q 1481 4119 1714 3412 
Q 1947 2706 1947 2009 
Q 1947 1309 1714 600 
Q 1481 -109 1013 -844 
L 513 -844 
Q 928 -128 1133 580 
Q 1338 1288 1338 2009 
Q 1338 2731 1133 3434 
Q 928 4138 513 4856 
z
" transform="scale(0.015625)"/>
      </defs>
      <use xlink:href="#DejaVuSans-47"/>
      <use xlink:href="#DejaVuSans-72" transform="translate(77.490234 0)"/>
      <use xlink:href="#DejaVuSans-61" transform="translate(118.603516 0)"/>
      <use xlink:href="#DejaVuSans-70" transform="translate(179.882812 0)"/>
      <use xlink:href="#DejaVuSans-68" transform="translate(243.359375 0)"/>
      <use xlink:href="#DejaVuSans-2d" transform="translate(306.738281 0)"/>
      <use xlink:href="#DejaVuSans-4e" transform="translate(342.822266 0)"/>
      <use xlink:href="#DejaVuSans-4e" transform="translate(417.626953 0)"/>
      <use xlink:href="#DejaVuSans-20" transform="translate(492.431641 0)"/>
      <use xlink:href="#DejaVuSans-28" transform="translate(524.21875 0)"/>
      <use xlink:href="#DejaVuSans-41" transform="translate(563.232422 0)"/>
      <use xlink:href="#DejaVuSans-55" transform="translate(631.640625 0)"/>
      <use xlink:href="#DejaVuSans-43" transform="translate(704.833984 0)"/>
      <use xlink:href="#DejaVuSans-20" transform="translate(774.658203 0)"/>
      <use xlink:href="#DejaVuSans-3d" transform="translate(806.445312 0)"/>
      <use xlink:href="#DejaVuSans-20" transform="translate(890.234375 0)"/>
      <use xlink:href="#DejaVuSans-30" transform="translate(922.021484 0)"/>
      <use xlink:href="#DejaVuSans-2e" transform="translate(985.644531 0)"/>
      <use xlink:href="#DejaVuSans-39" transform="translate(1017.431641 0)"/>
      <use xlink:href="#DejaVuSans-32" transform="translate(1081.054688 0)"/>
      <use xlink:href="#DejaVuSans-38" transform="translate(1144.677734 0)"/>
      <use xlink:href="#DejaVuSans-33" transform="translate(1208.300781 0)"/>
      <use xlink:href="#DejaVuSans-29" transform="translate(1271.923828 0)"/>
     </g>
    </g>
   </g>
  </g>
 </g>
 <defs>
  <clipPath id="pd319d2d5c1">
   <rect x="57.6" y="41.472" width="357.12" height="266.112"/>
  </clipPath>
 </defs>
</svg>
