<?xml version="1.0" encoding="utf-8" standalone="no"?>
<!DOCTYPE svg PUBLIC "-//W3C//DTD SVG 1.1//EN"
  "http://www.w3.org/Graphics/SVG/1.1/DTD/svg11.dtd">
<svg xmlns:xlink="http://www.w3.org/1999/xlink" width="460.8pt" height="345.6pt" viewBox="0 0 460.8 345.6" xmlns="http://www.w3.org/2000/svg" version="1.1">
 <metadata>
  <rdf:RDF xmlns:dc="http://purl.org/dc/elements/1.1/" xmlns:cc="http://creativecommons.org/ns#" xmlns:rdf="http://www.w3.org/1999/02/22-rdf-syntax-ns#">
   <cc:Work>
    <dc:type rdf:resource="http://purl.org/dc/dcmitype/StillImage"/>
    <dc:date>2026-04-08T16:12:17.437295</dc:date>
    <dc:format>image/svg+xml</dc:format>
    <dc:creator>
     <cc:Agent>
      <dc:title>Matplotlib v3.10.8, https://matplotlib.org/</dc:title>
     </cc:Agent>
    </dc:creator>
   </cc:Work>
  </rdf:RDF>
 </metadata>
 <defs>
  <style type="text/css">*{stroke-linejoin: round; stroke-linecap: butt}</style>
 </defs>
 <g id="figure_1">
  <g id="patch_1">
   <path d="M 0 345.6 
L 460.8 345.6 
L 460.8 0 
L 0 0 
z
" style="fill: #ffffff"/>
  </g>
  <g id="axes_1">
   <g id="patch_2">
    <path d="M 57.6 307.584 
L 414.72 307.584 
L 414.72 41.472 
L 57.6 41.472 
z
" style="fill: #ffffff"/>
   </g>
   <g id="matplotlib.axis_1">
    <g id="xtick_1">
     <g id="line2d_1">
      <defs>
       <path id="m8b03236735" d="M 0 0 
L 0 3.5 
" style="stroke: #000000; stroke-width: 0.8"/>
      </defs>
      <g>
       <use xlink:href="#m8b03236735" x="70.239677" y="307.584" style="stroke: #000000; stroke-width: 0.8"/>
      </g>
     </g>
     <g id="text_1">
      <!-- 0.0 -->
      <g transform="translate(62.288115 322.182437) scale(0.1 -0.1)">
       <defs>
        <path id="DejaVuSans-30" d="M 2034 4250 
Q 1547 4250 1301 3770 
Q 1056 3291 1056 2328 
Q 1056 1369 1301 889 
Q 1547 409 2034 409 
Q 2525 409 2770 889 
Q 3016 1369 3016 2328 
Q 3016 3291 2770 3770 
Q 2525 4250 2034 4250 
z
M 2034 4750 
Q 2819 4750 3233 4129 
Q 3647 3509 3647 2328 
Q 3647 1150 3233 529 
Q 2819 -91 2034 -91 
Q 1250 -91 836 529 
Q 422 1150 422 2328 
Q 422 3509 836 4129 
Q 1250 4750 2034 4750 
z
" transform="scale(0.015625)"/>
        <path id="DejaVuSans-2e" d="M 684 794 
L 1344 794 
L 1344 0 
L 684 0 
L 684 794 
z
" transform="scale(0.015625)"/>
       </defs>
       <use xlink:href="#DejaVuSans-30"/>
       <use xlink:href="#DejaVuSans-2e" transform="translate(63.623047 0)"/>
       <use xlink:href="#DejaVuSans-30" transform="translate(95.410156 0)"/>
      </g>
     </g>
    </g>
    <g id="xtick_2">
     <g id="line2d_2">
      <g>
       <use xlink:href="#m8b03236735" x="135.889196" y="307.584" style="stroke: #000000; stroke-width: 0.8"/>
      </g>
     </g>
     <g id="text_2">
      <!-- 0.2 -->
      <g transform="translate(127.937634 322.182437) scale(0.1 -0.1)">
       <defs>
        <path id="DejaVuSans-32" d="M 1228 531 
L 3431 531 
L 3431 0 
L 469 0 
L 469 531 
Q 828 903 1448 1529 
Q 2069 2156 2228 2338 
Q 2531 2678 2651 2914 
Q 2772 3150 2772 3378 
Q 2772 3750 2511 3984 
Q 2250 4219 1831 4219 
Q 1534 4219 1204 4116 
Q 875 4013 500 3803 
L 500 4441 
Q 881 4594 1212 4672 
Q 1544 4750 1819 4750 
Q 2544 4750 2975 4387 
Q 3406 4025 3406 3419 
Q 3406 3131 3298 2873 
Q 3191 2616 2906 2266 
Q 2828 2175 2409 1742 
Q 1991 1309 1228 531 
z
" transform="scale(0.015625)"/>
       </defs>
       <use xlink:href="#DejaVuSans-30"/>
       <use xlink:href="#DejaVuSans-2e" transform="translate(63.623047 0)"/>
       <use xlink:href="#DejaVuSans-32" transform="translate(95.410156 0)"/>
      </g>
     </g>
    </g>
    <g id="xtick_3">
     <g id="line2d_3">
      <g>
       <use xlink:href="#m8b03236735" x="201.538715" y="307.584" style="stroke: #000000; stroke-width: 0.8"/>
      </g>
     </g>
     <g id="text_3">
      <!-- 0.4 -->
      <g transform="translate(193.587153 322.182437) scale(0.1 -0.1)">
       <defs>
        <path id="DejaVuSans-34" d="M 2419 4116 
L 825 1625 
L 2419 1625 
L 2419 4116 
z
M 2253 4666 
L 3047 4666 
L 3047 1625 
L 3713 1625 
L 3713 1100 
L 3047 1100 
L 3047 0 
L 2419 0 
L 2419 1100 
L 313 1100 
L 313 1709 
L 2253 4666 
z
" transform="scale(0.015625)"/>
       </defs>
       <use xlink:href="#DejaVuSans-30"/>
       <use xlink:href="#DejaVuSans-2e" transform="translate(63.623047 0)"/>
       <use xlink:href="#DejaVuSans-34" transform="translate(95.410156 0)"/>
      </g>
     </g>
    </g>
    <g id="xtick_4">
     <g id="line2d_4">
      <g>
       <use xlink:href="#m8b03236735" x="267.188234" y="307.584" style="stroke: #000000; stroke-width: 0.8"/>
      </g>
     </g>
     <g id="text_4">
      <!-- 0.6 -->
      <g transform="translate(259.236672 322.182437) scale(0.1 -0.1)">
       <defs>
        <path id="DejaVuSans-36" d="M 2113 2584 
Q 1688 2584 1439 2293 
Q 1191 2003 1191 1497 
Q 1191 994 1439 701 
Q 1688 409 2113 409 
Q 2538 409 2786 701 
Q 3034 994 3034 1497 
Q 3034 2003 2786 2293 
Q 2538 2584 2113 2584 
z
M 3366 4563 
L 3366 3988 
Q 3128 4100 2886 4159 
Q 2644 4219 2406 4219 
Q 1781 4219 1451 3797 
Q 1122 3375 1075 2522 
Q 1259 2794 1537 2939 
Q 1816 3084 2150 3084 
Q 2853 3084 3261 2657 
Q 3669 2231 3669 1497 
Q 3669 778 3244 343 
Q 2819 -91 2113 -91 
Q 1303 -91 875 529 
Q 447 1150 447 2328 
Q 447 3434 972 4092 
Q 1497 4750 2381 4750 
Q 2619 4750 2861 4703 
Q 3103 4656 3366 4563 
z
" transform="scale(0.015625)"/>
       </defs>
       <use xlink:href="#DejaVuSans-30"/>
       <use xlink:href="#DejaVuSans-2e" transform="translate(63.623047 0)"/>
       <use xlink:href="#DejaVuSans-36" transform="translate(95.410156 0)"/>
      </g>
     </g>
    </g>
    <g id="xtick_5">
     <g id="line2d_5">
      <g>
       <use xlink:href="#m8b03236735" x="332.837754" y="307.584" style="stroke: #000000; stroke-width: 0.8"/>
      </g>
     </g>
     <g id="text_5">
      <!-- 0.8 -->
      <g transform="translate(324.886191 322.182437) scale(0.1 -0.1)">
       <defs>
        <path id="DejaVuSans-38" d="M 2034 2216 
Q 1584 2216 1326 1975 
Q 1069 1734 1069 1313 
Q 1069 891 1326 650 
Q 1584 409 2034 409 
Q 2484 409 2743 651 
Q 3003 894 3003 1313 
Q 3003 1734 2745 1975 
Q 2488 2216 2034 2216 
z
M 1403 2484 
Q 997 2584 770 2862 
Q 544 3141 544 3541 
Q 544 4100 942 4425 
Q 1341 4750 2034 4750 
Q 2731 4750 3128 4425 
Q 3525 4100 3525 3541 
Q 3525 3141 3298 2862 
Q 3072 2584 2669 2484 
Q 3125 2378 3379 2068 
Q 3634 1759 3634 1313 
Q 3634 634 3220 271 
Q 2806 -91 2034 -91 
Q 1263 -91 848 271 
Q 434 634 434 1313 
Q 434 1759 690 2068 
Q 947 2378 1403 2484 
z
M 1172 3481 
Q 1172 3119 1398 2916 
Q 1625 2713 2034 2713 
Q 2441 2713 2670 2916 
Q 2900 3119 2900 3481 
Q 2900 3844 2670 4047 
Q 2441 4250 2034 4250 
Q 1625 4250 1398 4047 
Q 1172 3844 1172 3481 
z
" transform="scale(0.015625)"/>
       </defs>
       <use xlink:href="#DejaVuSans-30"/>
       <use xlink:href="#DejaVuSans-2e" transform="translate(63.623047 0)"/>
       <use xlink:href="#DejaVuSans-38" transform="translate(95.410156 0)"/>
      </g>
     </g>
    </g>
    <g id="xtick_6">
     <g id="line2d_6">
      <g>
       <use xlink:href="#m8b03236735" x="398.487273" y="307.584" style="stroke: #000000; stroke-width: 0.8"/>
      </g>
     </g>
     <g id="text_6">
      <!-- 1.0 -->
      <g transform="translate(390.53571 322.182437) scale(0.1 -0.1)">
       <defs>
        <path id="DejaVuSans-31" d="M 794 531 
L 1825 531 
L 1825 4091 
L 703 3866 
L 703 4441 
L 1819 4666 
L 2450 4666 
L 2450 531 
L 3481 531 
L 3481 0 
L 794 0 
L 794 531 
z
" transform="scale(0.015625)"/>
       </defs>
       <use xlink:href="#DejaVuSans-31"/>
       <use xlink:href="#DejaVuSans-2e" transform="translate(63.623047 0)"/>
       <use xlink:href="#DejaVuSans-30" transform="translate(95.410156 0)"/>
      </g>
     </g>
    </g>
    <g id="text_7">
     <!-- Recall -->
     <g transform="translate(221.242812 335.860562) scale(0.1 -0.1)">
      <defs>
       <path id="DejaVuSans-52" d="M 2841 2188 
Q 3044 2119 3236 1894 
Q 3428 1669 3622 1275 
L 4263 0 
L 3584 0 
L 2988 1197 
Q 2756 1666 2539 1819 
Q 2322 1972 1947 1972 
L 1259 1972 
L 1259 0 
L 628 0 
L 628 4666 
L 2053 4666 
Q 2853 4666 3247 4331 
Q 3641 3997 3641 3322 
Q 3641 2881 3436 2590 
Q 3231 2300 2841 2188 
z
M 1259 4147 
L 1259 2491 
L 2053 2491 
Q 2509 2491 2742 2702 
Q 2975 2913 2975 3322 
Q 2975 3731 2742 3939 
Q 2509 4147 2053 4147 
L 1259 4147 
z
" transform="scale(0.015625)"/>
       <path id="DejaVuSans-65" d="M 3597 1894 
L 3597 1613 
L 953 1613 
Q 991 1019 1311 708 
Q 1631 397 2203 397 
Q 2534 397 2845 478 
Q 3156 559 3463 722 
L 3463 178 
Q 3153 47 2828 -22 
Q 2503 -91 2169 -91 
Q 1331 -91 842 396 
Q 353 884 353 1716 
Q 353 2575 817 3079 
Q 1281 3584 2069 3584 
Q 2775 3584 3186 3129 
Q 3597 2675 3597 1894 
z
M 3022 2063 
Q 3016 2534 2758 2815 
Q 2500 3097 2075 3097 
Q 1594 3097 1305 2825 
Q 1016 2553 972 2059 
L 3022 2063 
z
" transform="scale(0.015625)"/>
       <path id="DejaVuSans-63" d="M 3122 3366 
L 3122 2828 
Q 2878 2963 2633 3030 
Q 2388 3097 2138 3097 
Q 1578 3097 1268 2742 
Q 959 2388 959 1747 
Q 959 1106 1268 751 
Q 1578 397 2138 397 
Q 2388 397 2633 464 
Q 2878 531 3122 666 
L 3122 134 
Q 2881 22 2623 -34 
Q 2366 -91 2075 -91 
Q 1284 -91 818 406 
Q 353 903 353 1747 
Q 353 2603 823 3093 
Q 1294 3584 2113 3584 
Q 2378 3584 2631 3529 
Q 2884 3475 3122 3366 
z
" transform="scale(0.015625)"/>
       <path id="DejaVuSans-61" d="M 2194 1759 
Q 1497 1759 1228 1600 
Q 959 1441 959 1056 
Q 959 750 1161 570 
Q 1363 391 1709 391 
Q 2188 391 2477 730 
Q 2766 1069 2766 1631 
L 2766 1759 
L 2194 1759 
z
M 3341 1997 
L 3341 0 
L 2766 0 
L 2766 531 
Q 2569 213 2275 61 
Q 1981 -91 1556 -91 
Q 1019 -91 701 211 
Q 384 513 384 1019 
Q 384 1609 779 1909 
Q 1175 2209 1959 2209 
L 2766 2209 
L 2766 2266 
Q 2766 2663 2505 2880 
Q 2244 3097 1772 3097 
Q 1472 3097 1187 3025 
Q 903 2953 641 2809 
L 641 3341 
Q 956 3463 1253 3523 
Q 1550 3584 1831 3584 
Q 2591 3584 2966 3190 
Q 3341 2797 3341 1997 
z
" transform="scale(0.015625)"/>
       <path id="DejaVuSans-6c" d="M 603 4863 
L 1178 4863 
L 1178 0 
L 603 0 
L 603 4863 
z
" transform="scale(0.015625)"/>
      </defs>
      <use xlink:href="#DejaVuSans-52"/>
      <use xlink:href="#DejaVuSans-65" transform="translate(64.982422 0)"/>
      <use xlink:href="#DejaVuSans-63" transform="translate(126.505859 0)"/>
      <use xlink:href="#DejaVuSans-61" transform="translate(181.486328 0)"/>
      <use xlink:href="#DejaVuSans-6c" transform="translate(242.765625 0)"/>
      <use xlink:href="#DejaVuSans-6c" transform="translate(270.548828 0)"/>
     </g>
    </g>
   </g>
   <g id="matplotlib.axis_2">
    <g id="ytick_1">
     <g id="line2d_7">
      <defs>
       <path id="m9bb458e79a" d="M 0 0 
L -3.5 0 
" style="stroke: #000000; stroke-width: 0.8"/>
      </defs>
      <g>
       <use xlink:href="#m9bb458e79a" x="57.6" y="295.488" style="stroke: #000000; stroke-width: 0.8"/>
      </g>
     </g>
     <g id="text_8">
      <!-- 0.0 -->
      <g transform="translate(34.696875 299.287219) scale(0.1 -0.1)">
       <use xlink:href="#DejaVuSans-30"/>
       <use xlink:href="#DejaVuSans-2e" transform="translate(63.623047 0)"/>
       <use xlink:href="#DejaVuSans-30" transform="translate(95.410156 0)"/>
      </g>
     </g>
    </g>
    <g id="ytick_2">
     <g id="line2d_8">
      <g>
       <use xlink:href="#m9bb458e79a" x="57.6" y="247.104" style="stroke: #000000; stroke-width: 0.8"/>
      </g>
     </g>
     <g id="text_9">
      <!-- 0.2 -->
      <g transform="translate(34.696875 250.903219) scale(0.1 -0.1)">
       <use xlink:href="#DejaVuSans-30"/>
       <use xlink:href="#DejaVuSans-2e" transform="translate(63.623047 0)"/>
       <use xlink:href="#DejaVuSans-32" transform="translate(95.410156 0)"/>
      </g>
     </g>
    </g>
    <g id="ytick_3">
     <g id="line2d_9">
      <g>
       <use xlink:href="#m9bb458e79a" x="57.6" y="198.72" style="stroke: #000000; stroke-width: 0.8"/>
      </g>
     </g>
     <g id="text_10">
      <!-- 0.4 -->
      <g transform="translate(34.696875 202.519219) scale(0.1 -0.1)">
       <use xlink:href="#DejaVuSans-30"/>
       <use xlink:href="#DejaVuSans-2e" transform="translate(63.623047 0)"/>
       <use xlink:href="#DejaVuSans-34" transform="translate(95.410156 0)"/>
      </g>
     </g>
    </g>
    <g id="ytick_4">
     <g id="line2d_10">
      <g>
       <use xlink:href="#m9bb458e79a" x="57.6" y="150.336" style="stroke: #000000; stroke-width: 0.8"/>
      </g>
     </g>
     <g id="text_11">
      <!-- 0.6 -->
      <g transform="translate(34.696875 154.135219) scale(0.1 -0.1)">
       <use xlink:href="#DejaVuSans-30"/>
       <use xlink:href="#DejaVuSans-2e" transform="translate(63.623047 0)"/>
       <use xlink:href="#DejaVuSans-36" transform="translate(95.410156 0)"/>
      </g>
     </g>
    </g>
    <g id="ytick_5">
     <g id="line2d_11">
      <g>
       <use xlink:href="#m9bb458e79a" x="57.6" y="101.952" style="stroke: #000000; stroke-width: 0.8"/>
      </g>
     </g>
     <g id="text_12">
      <!-- 0.8 -->
      <g transform="translate(34.696875 105.751219) scale(0.1 -0.1)">
       <use xlink:href="#DejaVuSans-30"/>
       <use xlink:href="#DejaVuSans-2e" transform="translate(63.623047 0)"/>
       <use xlink:href="#DejaVuSans-38" transform="translate(95.410156 0)"/>
      </g>
     </g>
    </g>
    <g id="ytick_6">
     <g id="line2d_12">
      <g>
       <use xlink:href="#m9bb458e79a" x="57.6" y="53.568" style="stroke: #000000; stroke-width: 0.8"/>
      </g>
     </g>
     <g id="text_13">
      <!-- 1.0 -->
      <g transform="translate(34.696875 57.367219) scale(0.1 -0.1)">
       <use xlink:href="#DejaVuSans-31"/>
       <use xlink:href="#DejaVuSans-2e" transform="translate(63.623047 0)"/>
       <use xlink:href="#DejaVuSans-30" transform="translate(95.410156 0)"/>
      </g>
     </g>
    </g>
    <g id="text_14">
     <!-- Precision -->
     <g transform="translate(28.617187 196.835031) rotate(-90) scale(0.1 -0.1)">
      <defs>
       <path id="DejaVuSans-50" d="M 1259 4147 
L 1259 2394 
L 2053 2394 
Q 2494 2394 2734 2622 
Q 2975 2850 2975 3272 
Q 2975 3691 2734 3919 
Q 2494 4147 2053 4147 
L 1259 4147 
z
M 628 4666 
L 2053 4666 
Q 2838 4666 3239 4311 
Q 3641 3956 3641 3272 
Q 3641 2581 3239 2228 
Q 2838 1875 2053 1875 
L 1259 1875 
L 1259 0 
L 628 0 
L 628 4666 
z
" transform="scale(0.015625)"/>
       <path id="DejaVuSans-72" d="M 2631 2963 
Q 2534 3019 2420 3045 
Q 2306 3072 2169 3072 
Q 1681 3072 1420 2755 
Q 1159 2438 1159 1844 
L 1159 0 
L 581 0 
L 581 3500 
L 1159 3500 
L 1159 2956 
Q 1341 3275 1631 3429 
Q 1922 3584 2338 3584 
Q 2397 3584 2469 3576 
Q 2541 3569 2628 3553 
L 2631 2963 
z
" transform="scale(0.015625)"/>
       <path id="DejaVuSans-69" d="M 603 3500 
L 1178 3500 
L 1178 0 
L 603 0 
L 603 3500 
z
M 603 4863 
L 1178 4863 
L 1178 4134 
L 603 4134 
L 603 4863 
z
" transform="scale(0.015625)"/>
       <path id="DejaVuSans-73" d="M 2834 3397 
L 2834 2853 
Q 2591 2978 2328 3040 
Q 2066 3103 1784 3103 
Q 1356 3103 1142 2972 
Q 928 2841 928 2578 
Q 928 2378 1081 2264 
Q 1234 2150 1697 2047 
L 1894 2003 
Q 2506 1872 2764 1633 
Q 3022 1394 3022 966 
Q 3022 478 2636 193 
Q 2250 -91 1575 -91 
Q 1294 -91 989 -36 
Q 684 19 347 128 
L 347 722 
Q 666 556 975 473 
Q 1284 391 1588 391 
Q 1994 391 2212 530 
Q 2431 669 2431 922 
Q 2431 1156 2273 1281 
Q 2116 1406 1581 1522 
L 1381 1569 
Q 847 1681 609 1914 
Q 372 2147 372 2553 
Q 372 3047 722 3315 
Q 1072 3584 1716 3584 
Q 2034 3584 2315 3537 
Q 2597 3491 2834 3397 
z
" transform="scale(0.015625)"/>
       <path id="DejaVuSans-6f" d="M 1959 3097 
Q 1497 3097 1228 2736 
Q 959 2375 959 1747 
Q 959 1119 1226 758 
Q 1494 397 1959 397 
Q 2419 397 2687 759 
Q 2956 1122 2956 1747 
Q 2956 2369 2687 2733 
Q 2419 3097 1959 3097 
z
M 1959 3584 
Q 2709 3584 3137 3096 
Q 3566 2609 3566 1747 
Q 3566 888 3137 398 
Q 2709 -91 1959 -91 
Q 1206 -91 779 398 
Q 353 888 353 1747 
Q 353 2609 779 3096 
Q 1206 3584 1959 3584 
z
" transform="scale(0.015625)"/>
       <path id="DejaVuSans-6e" d="M 3513 2113 
L 3513 0 
L 2938 0 
L 2938 2094 
Q 2938 2591 2744 2837 
Q 2550 3084 2163 3084 
Q 1697 3084 1428 2787 
Q 1159 2491 1159 1978 
L 1159 0 
L 581 0 
L 581 3500 
L 1159 3500 
L 1159 2956 
Q 1366 3272 1645 3428 
Q 1925 3584 2291 3584 
Q 2894 3584 3203 3211 
Q 3513 2838 3513 2113 
z
" transform="scale(0.015625)"/>
      </defs>
      <use xlink:href="#DejaVuSans-50"/>
      <use xlink:href="#DejaVuSans-72" transform="translate(58.552734 0)"/>
      <use xlink:href="#DejaVuSans-65" transform="translate(97.416016 0)"/>
      <use xlink:href="#DejaVuSans-63" transform="translate(158.939453 0)"/>
      <use xlink:href="#DejaVuSans-69" transform="translate(213.919922 0)"/>
      <use xlink:href="#DejaVuSans-73" transform="translate(241.703125 0)"/>
      <use xlink:href="#DejaVuSans-69" transform="translate(293.802734 0)"/>
      <use xlink:href="#DejaVuSans-6f" transform="translate(321.585938 0)"/>
      <use xlink:href="#DejaVuSans-6e" transform="translate(382.767578 0)"/>
     </g>
    </g>
   </g>
   <g id="line2d_13">
    <path d="M 73.832727 53.568 
L 108.617182 53.568 
L 108.581875 53.82 
L 108.689591 53.82 
L 110.946963 53.82 
L 110.909775 54.072 
L 111.020535 54.072 
L 112.123161 54.072 
L 112.085015 54.324 
L 112.196796 54.324 
L 114.155929 54.324 
L 114.116173 54.576 
L 114.226879 54.576 
L 115.502147 54.576 
L 115.461324 54.828 
L 115.572498 54.828 
L 115.723782 54.828 
L 115.682749 55.08 
L 115.795133 55.08 
L 118.136313 55.08 
L 118.093426 55.332 
L 118.203485 55.332 
L 119.760012 55.332 
L 119.715882 55.584 
L 119.825794 55.584 
L 123.465995 55.584 
L 123.419143 55.836 
L 123.52808 55.836 
L 129.995317 55.836 
L 129.943911 56.088 
L 130.046968 56.088 
L 136.871133 56.088 
L 136.815221 56.34 
L 136.91497 56.34 
L 139.91245 56.34 
L 139.854603 56.592 
L 139.963791 56.592 
L 144.241751 56.592 
L 144.191148 57.096 
L 144.226388 57.096 
L 146.628908 57.096 
L 146.566935 57.348 
L 146.67979 57.348 
L 151.314946 57.348 
L 151.250325 57.6 
L 151.35636 57.6 
L 152.628864 57.6 
L 152.563476 57.852 
L 152.673095 57.852 
L 159.417863 57.852 
L 159.348967 58.104 
L 159.451805 58.104 
L 159.761749 58.104 
L 159.727131 58.608 
L 160.618335 58.608 
L 160.548641 58.86 
L 160.654606 58.86 
L 167.257144 58.86 
L 167.184338 59.112 
L 167.275997 59.112 
L 168.264588 59.112 
L 168.191268 59.364 
L 168.284942 59.364 
L 170.719258 59.364 
L 170.644824 59.616 
L 170.743357 59.616 
L 170.908009 59.616 
L 170.833417 59.868 
L 170.932427 59.868 
L 171.263871 59.868 
L 171.189053 60.12 
L 171.288871 60.12 
L 174.413396 60.12 
L 174.337232 60.372 
L 174.44349 60.372 
L 175.663087 60.372 
L 175.586357 60.624 
L 175.695299 60.624 
L 176.760136 60.624 
L 176.682906 60.876 
L 176.794249 60.876 
L 177.429614 60.876 
L 177.35205 61.128 
L 177.464919 61.128 
L 182.802459 61.128 
L 182.7229 61.38 
L 182.805944 61.38 
L 185.442554 61.38 
L 185.362039 61.632 
L 185.449121 61.632 
L 188.674268 61.632 
L 188.592661 61.884 
L 188.6848 61.884 
L 191.227956 61.884 
L 191.145514 62.136 
L 191.241776 62.136 
L 195.42801 62.136 
L 195.344344 62.388 
L 195.447523 62.388 
L 199.388561 62.388 
L 199.303838 62.64 
L 199.413773 62.64 
L 204.265651 62.64 
L 204.179788 62.892 
L 204.239027 62.892 
L 208.01709 62.892 
L 207.930434 63.144 
L 207.993106 63.144 
L 224.88673 63.144 
L 224.797977 63.396 
L 224.877035 63.396 
L 229.941756 63.396 
L 229.852673 63.648 
L 229.937079 63.648 
L 230.190836 63.648 
L 230.101649 63.9 
L 230.186411 63.9 
L 235.171082 63.9 
L 235.081741 64.152 
L 235.171966 64.152 
L 235.262291 64.152 
L 235.172853 64.404 
L 235.263276 64.404 
L 237.463591 64.404 
L 237.374084 64.656 
L 237.467039 64.656 
L 242.250431 64.656 
L 242.160999 64.908 
L 242.259465 64.908 
L 243.950811 64.908 
L 243.86138 65.16 
L 243.961914 65.16 
L 247.03302 65.16 
L 246.943719 65.412 
L 247.047969 65.412 
L 255.462208 65.412 
L 255.285197 65.916 
L 255.399776 65.916 
L 257.48674 65.916 
L 257.398394 66.168 
L 257.515735 66.168 
L 258.459785 66.168 
L 258.371496 66.42 
L 261.752555 66.42 
L 261.664736 66.672 
L 262.28144 66.672 
L 262.193622 66.924 
L 262.565626 66.924 
L 262.477765 67.176 
L 264.359991 67.176 
L 264.272384 67.428 
L 265.291597 67.428 
L 265.116455 67.932 
L 265.888244 67.932 
L 265.800662 68.184 
L 266.578756 68.184 
L 266.491226 68.436 
L 267.934252 68.436 
L 267.846925 68.688 
L 270.255138 68.688 
L 270.16826 68.94 
L 270.575447 68.94 
L 270.48855 69.192 
L 270.624681 69.192 
L 270.5377 69.444 
L 271.496063 69.444 
L 271.322222 69.948 
L 271.874267 69.948 
L 271.787308 70.2 
L 273.181137 70.2 
L 273.09442 70.452 
L 279.01824 70.452 
L 278.933088 70.704 
L 279.081942 70.704 
L 278.996713 70.956 
L 279.145825 70.956 
L 279.060521 71.208 
L 280.56391 71.208 
L 280.478951 71.46 
L 282.621127 71.46 
L 282.536738 71.712 
L 284.723757 71.712 
L 284.639984 71.964 
L 284.79798 71.964 
L 284.714139 72.216 
L 288.251199 72.216 
L 288.168501 72.468 
L 289.815733 72.468 
L 289.733531 72.72 
L 299.44258 72.72 
L 299.364283 72.972 
L 299.545553 72.972 
L 299.388751 73.476 
L 303.266375 73.476 
L 303.189584 73.728 
L 303.943467 73.728 
L 303.790235 74.232 
L 306.470324 74.232 
L 306.394838 74.484 
L 307.367471 74.484 
L 307.292351 74.736 
L 307.487939 74.736 
L 307.337527 75.24 
L 307.730073 75.24 
L 307.654881 75.492 
L 308.444291 75.492 
L 308.36938 75.744 
L 309.764282 75.744 
L 309.689975 75.996 
L 310.49485 75.996 
L 310.420845 76.248 
L 311.639008 76.248 
L 311.565532 76.5 
L 312.179593 76.5 
L 312.032936 77.004 
L 313.687637 77.004 
L 313.615035 77.256 
L 314.032488 77.256 
L 313.959995 77.508 
L 314.799686 77.508 
L 314.727541 77.76 
L 314.938489 77.76 
L 314.866339 78.012 
L 315.289569 78.012 
L 315.217536 78.264 
L 316.711304 78.264 
L 316.640008 78.516 
L 317.286163 78.516 
L 317.215121 78.768 
L 317.865056 78.768 
L 317.794273 79.02 
L 318.666712 79.02 
L 318.596324 79.272 
L 319.255094 79.272 
L 319.184977 79.524 
L 319.405478 79.524 
L 319.33537 79.776 
L 319.556396 79.776 
L 319.416074 80.28 
L 320.305196 80.28 
L 320.235391 80.532 
L 320.4588 80.532 
L 320.389008 80.784 
L 320.612955 80.784 
L 320.543175 81.036 
L 320.992553 81.036 
L 320.922926 81.288 
L 321.600449 81.288 
L 321.531119 81.54 
L 323.58714 81.54 
L 323.518987 81.792 
L 324.212269 81.792 
L 324.144438 82.044 
L 324.60904 82.044 
L 324.541386 82.296 
L 325.007994 82.296 
L 324.737353 83.304 
L 325.206905 83.304 
L 325.139241 83.556 
L 326.559294 83.556 
L 326.492447 83.808 
L 327.448614 83.808 
L 327.249254 84.564 
L 327.730996 84.564 
L 327.664621 84.816 
L 328.148502 84.816 
L 328.016037 85.32 
L 328.502408 85.32 
L 328.436322 85.572 
L 328.924868 85.572 
L 328.858995 85.824 
L 329.842338 85.824 
L 329.777024 86.076 
L 330.519975 86.076 
L 330.324853 86.832 
L 330.823579 86.832 
L 330.693581 87.336 
L 333.987259 87.336 
L 333.924454 87.588 
L 334.181457 87.588 
L 334.11872 87.84 
L 334.634612 87.84 
L 334.572134 88.092 
L 335.350346 88.092 
L 335.163918 88.848 
L 335.424927 88.848 
L 335.362735 89.1 
L 335.886694 89.1 
L 335.824774 89.352 
L 336.351207 89.352 
L 336.289564 89.604 
L 338.686409 89.604 
L 338.626489 89.856 
L 341.068836 89.856 
L 341.01072 90.108 
L 342.387989 90.108 
L 342.330861 90.36 
L 342.608222 90.36 
L 342.551203 90.612 
L 342.829356 90.612 
L 342.772446 90.864 
L 344.172922 90.864 
L 344.117043 91.116 
L 344.681739 91.116 
L 344.570571 91.62 
L 344.854263 91.62 
L 344.743107 92.124 
L 345.027861 92.124 
L 344.972348 92.376 
L 345.257933 92.376 
L 345.147038 92.88 
L 345.433699 92.88 
L 345.267213 93.636 
L 345.5552 93.636 
L 345.499715 93.888 
L 345.788551 93.888 
L 345.622134 94.644 
L 345.912315 94.644 
L 345.856857 94.896 
L 347.61238 94.896 
L 347.395429 95.904 
L 347.69122 95.904 
L 347.636951 96.156 
L 348.528903 96.156 
L 348.421581 96.66 
L 348.720702 96.66 
L 348.613446 97.164 
L 348.913742 97.164 
L 348.860206 97.416 
L 349.161418 97.416 
L 349.108035 97.668 
L 350.320506 97.668 
L 350.268094 97.92 
L 350.573136 97.92 
L 350.257911 99.432 
L 350.565286 99.432 
L 350.512624 99.684 
L 350.820955 99.684 
L 350.66312 100.44 
L 351.906683 100.44 
L 351.854984 100.692 
L 352.16789 100.692 
L 351.909122 101.952 
L 354.770324 101.952 
L 354.572062 102.96 
L 355.867425 102.96 
L 355.818828 103.212 
L 356.799077 103.212 
L 356.703462 103.716 
L 357.032352 103.716 
L 356.984703 103.968 
L 357.9769 103.968 
L 357.836239 104.724 
L 358.503517 104.724 
L 358.223257 106.236 
L 359.575292 106.236 
L 359.483735 106.74 
L 359.824423 106.74 
L 359.77883 106.992 
L 360.120671 106.992 
L 360.029862 107.496 
L 360.373215 107.496 
L 360.100322 109.008 
L 360.446631 109.008 
L 360.309795 109.764 
L 361.007079 109.764 
L 360.871445 110.52 
L 362.280568 110.52 
L 362.236628 110.772 
L 362.591424 110.772 
L 362.547755 111.024 
L 362.903794 111.024 
L 362.729579 112.032 
L 363.807551 112.032 
L 363.764895 112.284 
L 364.126379 112.284 
L 364.041537 112.788 
L 364.404704 112.788 
L 364.362523 113.04 
L 364.726987 113.04 
L 364.643111 113.544 
L 365.009284 113.544 
L 364.799785 114.804 
L 365.168908 114.804 
L 365.127103 115.056 
L 365.497565 115.056 
L 365.372761 115.812 
L 365.745404 115.812 
L 365.495466 117.324 
L 365.871588 117.324 
L 365.662513 118.584 
L 366.041747 118.584 
L 365.747551 120.348 
L 366.13083 120.348 
L 365.919626 121.608 
L 366.306136 121.608 
L 366.264014 121.86 
L 366.651988 121.86 
L 366.568321 122.364 
L 367.349161 122.364 
L 367.101048 123.876 
L 367.495811 123.876 
L 367.413167 124.38 
L 368.207749 124.38 
L 368.167214 124.632 
L 368.56658 124.632 
L 368.526418 124.884 
L 369.329344 124.884 
L 369.250645 125.388 
L 369.654714 125.388 
L 369.179452 128.412 
L 371.246808 128.412 
L 371.171245 128.916 
L 372.42862 128.916 
L 372.319283 129.672 
L 372.742363 129.672 
L 372.560805 130.932 
L 373.416028 130.932 
L 372.946394 134.208 
L 373.3832 134.208 
L 373.31054 134.712 
L 373.749773 134.712 
L 373.677861 135.216 
L 374.119547 135.216 
L 374.084026 135.468 
L 374.527594 135.468 
L 374.280223 137.232 
L 374.729323 137.232 
L 374.623575 137.988 
L 375.52948 137.988 
L 375.460949 138.492 
L 375.917184 138.492 
L 375.883396 138.744 
L 376.341633 138.744 
L 376.106755 140.508 
L 376.570893 140.508 
L 376.403337 141.768 
L 376.872194 141.768 
L 376.398624 145.296 
L 378.327184 145.296 
L 378.134878 146.808 
L 378.625157 146.808 
L 378.46575 148.068 
L 379.957167 148.068 
L 379.836841 149.076 
L 380.340251 149.076 
L 380.221449 150.084 
L 381.239452 150.084 
L 381.125416 151.092 
L 382.156547 151.092 
L 382.047493 152.1 
L 382.568911 152.1 
L 382.353069 154.116 
L 382.882973 154.116 
L 382.776277 155.124 
L 383.311442 155.124 
L 383.206781 156.132 
L 383.747312 156.132 
L 383.72181 156.384 
L 384.81029 156.384 
L 384.49448 159.66 
L 385.053652 159.66 
L 385.029706 159.912 
L 385.591831 159.912 
L 385.568763 160.164 
L 386.701004 160.164 
L 386.594244 161.424 
L 387.744624 161.424 
L 387.27578 167.22 
L 389.090872 167.22 
L 388.737344 172.008 
L 389.369284 172.008 
L 389.240862 173.772 
L 389.884009 173.772 
L 389.866629 174.024 
L 390.513647 174.024 
L 390.464928 174.78 
L 391.118449 174.78 
L 390.901719 178.308 
L 391.576797 178.308 
L 391.07762 186.372 
L 391.803498 186.372 
L 391.788342 186.624 
L 392.519135 186.624 
L 392.408614 188.64 
L 393.156105 188.64 
L 393.118737 189.396 
L 393.874894 189.396 
L 393.106165 204.768 
L 392.939426 207.54 
L 393.851007 207.54 
L 393.406041 215.352 
L 394.409663 215.352 
L 394.196454 219.384 
L 395.258608 219.384 
L 395.091608 223.164 
L 396.215663 223.164 
L 396.055809 227.952 
L 397.267021 227.952 
L 396.837787 245.592 
L 396.355795 256.932 
L 395.818593 264.744 
L 395.204797 270.54 
L 395.17164 270.792 
L 398.487273 270.792 
L 398.487273 295.488 
L 398.487273 295.488 
" clip-path="url(#p4416feb656)" style="fill: none; stroke: #1f77b4; stroke-width: 1.5; stroke-linecap: square"/>
   </g>
   <g id="patch_3">
    <path d="M 57.6 307.584 
L 57.6 41.472 
" style="fill: none; stroke: #000000; stroke-width: 0.8; stroke-linejoin: miter; stroke-linecap: square"/>
   </g>
   <g id="patch_4">
    <path d="M 414.72 307.584 
L 414.72 41.472 
" style="fill: none; stroke: #000000; stroke-width: 0.8; stroke-linejoin: miter; stroke-linecap: square"/>
   </g>
   <g id="patch_5">
    <path d="M 57.6 307.584 
L 414.72 307.584 
" style="fill: none; stroke: #000000; stroke-width: 0.8; stroke-linejoin: miter; stroke-linecap: square"/>
   </g>
   <g id="patch_6">
    <path d="M 57.6 41.472 
L 414.72 41.472 
" style="fill: none; stroke: #000000; stroke-width: 0.8; stroke-linejoin: miter; stroke-linecap: square"/>
   </g>
   <g id="text_15">
    <!-- Precision-Recall Curve -->
    <g transform="translate(169.7175 35.472) scale(0.12 -0.12)">
     <defs>
      <path id="DejaVuSans-2d" d="M 313 2009 
L 1997 2009 
L 1997 1497 
L 313 1497 
L 313 2009 
z
" transform="scale(0.015625)"/>
      <path id="DejaVuSans-20" transform="scale(0.015625)"/>
      <path id="DejaVuSans-43" d="M 4122 4306 
L 4122 3641 
Q 3803 3938 3442 4084 
Q 3081 4231 2675 4231 
Q 1875 4231 1450 3742 
Q 1025 3253 1025 2328 
Q 1025 1406 1450 917 
Q 1875 428 2675 428 
Q 3081 428 3442 575 
Q 3803 722 4122 1019 
L 4122 359 
Q 3791 134 3420 21 
Q 3050 -91 2638 -91 
Q 1578 -91 968 557 
Q 359 1206 359 2328 
Q 359 3453 968 4101 
Q 1578 4750 2638 4750 
Q 3056 4750 3426 4639 
Q 3797 4528 4122 4306 
z
" transform="scale(0.015625)"/>
      <path id="DejaVuSans-75" d="M 544 1381 
L 544 3500 
L 1119 3500 
L 1119 1403 
Q 1119 906 1312 657 
Q 1506 409 1894 409 
Q 2359 409 2629 706 
Q 2900 1003 2900 1516 
L 2900 3500 
L 3475 3500 
L 3475 0 
L 2900 0 
L 2900 538 
Q 2691 219 2414 64 
Q 2138 -91 1772 -91 
Q 1169 -91 856 284 
Q 544 659 544 1381 
z
M 1991 3584 
L 1991 3584 
z
" transform="scale(0.015625)"/>
      <path id="DejaVuSans-76" d="M 191 3500 
L 800 3500 
L 1894 563 
L 2988 3500 
L 3597 3500 
L 2284 0 
L 1503 0 
L 191 3500 
z
" transform="scale(0.015625)"/>
     </defs>
     <use xlink:href="#DejaVuSans-50"/>
     <use xlink:href="#DejaVuSans-72" transform="translate(58.552734 0)"/>
     <use xlink:href="#DejaVuSans-65" transform="translate(97.416016 0)"/>
     <use xlink:href="#DejaVuSans-63" transform="translate(158.939453 0)"/>
     <use xlink:href="#DejaVuSans-69" transform="translate(213.919922 0)"/>
     <use xlink:href="#DejaVuSans-73" transform="translate(241.703125 0)"/>
     <use xlink:href="#DejaVuSans-69" transform="translate(293.802734 0)"/>
     <use xlink:href="#DejaVuSans-6f" transform="translate(321.585938 0)"/>
     <use xlink:href="#DejaVuSans-6e" transform="translate(382.767578 0)"/>
     <use xlink:href="#DejaVuSans-2d" transform="translate(446.146484 0)"/>
     <use xlink:href="#DejaVuSans-52" transform="translate(482.230469 0)"/>
     <use xlink:href="#DejaVuSans-65" transform="translate(547.212891 0)"/>
     <use xlink:href="#DejaVuSans-63" transform="translate(608.736328 0)"/>
     <use xlink:href="#DejaVuSans-61" transform="translate(663.716797 0)"/>
     <use xlink:href="#DejaVuSans-6c" transform="translate(724.996094 0)"/>
     <use xlink:href="#DejaVuSans-6c" transform="translate(752.779297 0)"/>
     <use xlink:href="#DejaVuSans-20" transform="translate(780.5625 0)"/>
     <use xlink:href="#DejaVuSans-43" transform="translate(812.349609 0)"/>
     <use xlink:href="#DejaVuSans-75" transform="translate(882.173828 0)"/>
     <use xlink:href="#DejaVuSans-72" transform="translate(945.552734 0)"/>
     <use xlink:href="#DejaVuSans-76" transform="translate(986.666016 0)"/>
     <use xlink:href="#DejaVuSans-65" transform="translate(1045.845703 0)"/>
    </g>
   </g>
   <g id="legend_1">
    <g id="patch_7">
     <path d="M 64.6 302.584 
L 248.457812 302.584 
Q 250.457812 302.584 250.457812 300.584 
L 250.457812 286.905875 
Q 250.457812 284.905875 248.457812 284.905875 
L 64.6 284.905875 
Q 62.6 284.905875 62.6 286.905875 
L 62.6 300.584 
Q 62.6 302.584 64.6 302.584 
z
" style="fill: #ffffff; opacity: 0.8; stroke: #cccccc; stroke-linejoin: miter"/>
    </g>
    <g id="line2d_14">
     <path d="M 66.6 293.004312 
L 76.6 293.004312 
L 86.6 293.004312 
" style="fill: none; stroke: #1f77b4; stroke-width: 1.5; stroke-linecap: square"/>
    </g>
    <g id="text_16">
     <!-- Decision Tree (PR AUC = 0.90) -->
     <g transform="translate(94.6 296.504312) scale(0.1 -0.1)">
      <defs>
       <path id="DejaVuSans-44" d="M 1259 4147 
L 1259 519 
L 2022 519 
Q 2988 519 3436 956 
Q 3884 1394 3884 2338 
Q 3884 3275 3436 3711 
Q 2988 4147 2022 4147 
L 1259 4147 
z
M 628 4666 
L 1925 4666 
Q 3281 4666 3915 4102 
Q 4550 3538 4550 2338 
Q 4550 1131 3912 565 
Q 3275 0 1925 0 
L 628 0 
L 628 4666 
z
" transform="scale(0.015625)"/>
       <path id="DejaVuSans-54" d="M -19 4666 
L 3928 4666 
L 3928 4134 
L 2272 4134 
L 2272 0 
L 1638 0 
L 1638 4134 
L -19 4134 
L -19 4666 
z
" transform="scale(0.015625)"/>
       <path id="DejaVuSans-28" d="M 1984 4856 
Q 1566 4138 1362 3434 
Q 1159 2731 1159 2009 
Q 1159 1288 1364 580 
Q 1569 -128 1984 -844 
L 1484 -844 
Q 1016 -109 783 600 
Q 550 1309 550 2009 
Q 550 2706 781 3412 
Q 1013 4119 1484 4856 
L 1984 4856 
z
" transform="scale(0.015625)"/>
       <path id="DejaVuSans-41" d="M 2188 4044 
L 1331 1722 
L 3047 1722 
L 2188 4044 
z
M 1831 4666 
L 2547 4666 
L 4325 0 
L 3669 0 
L 3244 1197 
L 1141 1197 
L 716 0 
L 50 0 
L 1831 4666 
z
" transform="scale(0.015625)"/>
       <path id="DejaVuSans-55" d="M 556 4666 
L 1191 4666 
L 1191 1831 
Q 1191 1081 1462 751 
Q 1734 422 2344 422 
Q 2950 422 3222 751 
Q 3494 1081 3494 1831 
L 3494 4666 
L 4128 4666 
L 4128 1753 
Q 4128 841 3676 375 
Q 3225 -91 2344 -91 
Q 1459 -91 1007 375 
Q 556 841 556 1753 
L 556 4666 
z
" transform="scale(0.015625)"/>
       <path id="DejaVuSans-3d" d="M 678 2906 
L 4684 2906 
L 4684 2381 
L 678 2381 
L 678 2906 
z
M 678 1631 
L 4684 1631 
L 4684 1100 
L 678 1100 
L 678 1631 
z
" transform="scale(0.015625)"/>
       <path id="DejaVuSans-39" d="M 703 97 
L 703 672 
Q 941 559 1184 500 
Q 1428 441 1663 441 
Q 2288 441 2617 861 
Q 2947 1281 2994 2138 
Q 2813 1869 2534 1725 
Q 2256 1581 1919 1581 
Q 1219 1581 811 2004 
Q 403 2428 403 3163 
Q 403 3881 828 4315 
Q 1253 4750 1959 4750 
Q 2769 4750 3195 4129 
Q 3622 3509 3622 2328 
Q 3622 1225 3098 567 
Q 2575 -91 1691 -91 
Q 1453 -91 1209 -44 
Q 966 3 703 97 
z
M 1959 2075 
Q 2384 2075 2632 2365 
Q 2881 2656 2881 3163 
Q 2881 3666 2632 3958 
Q 2384 4250 1959 4250 
Q 1534 4250 1286 3958 
Q 1038 3666 1038 3163 
Q 1038 2656 1286 2365 
Q 1534 2075 1959 2075 
z
" transform="scale(0.015625)"/>
       <path id="DejaVuSans-29" d="M 513 4856 
L 1013 4856 
Q 1481 4119 1714 3412 
Q 1947 2706 1947 2009 
Q 1947 1309 1714 600 
Q 1481 -109 1013 -844 
L 513 -844 
Q 928 -128 1133 580 
Q 1338 1288 1338 2009 
Q 1338 2731 1133 3434 
Q 928 4138 513 4856 
z
" transform="scale(0.015625)"/>
      </defs>
      <use xlink:href="#DejaVuSans-44"/>
      <use xlink:href="#DejaVuSans-65" transform="translate(77.001953 0)"/>
      <use xlink:href="#DejaVuSans-63" transform="translate(138.525391 0)"/>
      <use xlink:href="#DejaVuSans-69" transform="translate(193.505859 0)"/>
      <use xlink:href="#DejaVuSans-73" transform="translate(221.289062 0)"/>
      <use xlink:href="#DejaVuSans-69" transform="translate(273.388672 0)"/>
      <use xlink:href="#DejaVuSans-6f" transform="translate(301.171875 0)"/>
      <use xlink:href="#DejaVuSans-6e" transform="translate(362.353516 0)"/>
      <use xlink:href="#DejaVuSans-20" transform="translate(425.732422 0)"/>
      <use xlink:href="#DejaVuSans-54" transform="translate(457.519531 0)"/>
      <use xlink:href="#DejaVuSans-72" transform="translate(503.853516 0)"/>
      <use xlink:href="#DejaVuSans-65" transform="translate(542.716797 0)"/>
      <use xlink:href="#DejaVuSans-65" transform="translate(604.240234 0)"/>
      <use xlink:href="#DejaVuSans-20" transform="translate(665.763672 0)"/>
      <use xlink:href="#DejaVuSans-28" transform="translate(697.550781 0)"/>
      <use xlink:href="#DejaVuSans-50" transform="translate(736.564453 0)"/>
      <use xlink:href="#DejaVuSans-52" transform="translate(796.867188 0)"/>
      <use xlink:href="#DejaVuSans-20" transform="translate(866.349609 0)"/>
      <use xlink:href="#DejaVuSans-41" transform="translate(898.136719 0)"/>
      <use xlink:href="#DejaVuSans-55" transform="translate(966.544922 0)"/>
      <use xlink:href="#DejaVuSans-43" transform="translate(1039.738281 0)"/>
      <use xlink:href="#DejaVuSans-20" transform="translate(1109.5625 0)"/>
      <use xlink:href="#DejaVuSans-3d" transform="translate(1141.349609 0)"/>
      <use xlink:href="#DejaVuSans-20" transform="translate(1225.138672 0)"/>
      <use xlink:href="#DejaVuSans-30" transform="translate(1256.925781 0)"/>
      <use xlink:href="#DejaVuSans-2e" transform="translate(1320.548828 0)"/>
      <use xlink:href="#DejaVuSans-39" transform="translate(1352.335938 0)"/>
      <use xlink:href="#DejaVuSans-30" transform="translate(1415.958984 0)"/>
      <use xlink:href="#DejaVuSans-29" transform="translate(1479.582031 0)"/>
     </g>
    </g>
   </g>
  </g>
 </g>
 <defs>
  <clipPath id="p4416feb656">
   <rect x="57.6" y="41.472" width="357.12" height="266.112"/>
  </clipPath>
 </defs>
</svg>
